<?xml version="1.0" encoding="UTF-8"?>
<svg id="Capa_1" data-name="Capa 1" xmlns="http://www.w3.org/2000/svg" viewBox="0 0 322.02 131.43">
  <defs>
    <style>
      .cls-1 {
        fill: #3a3a3a;
      }
    </style>
  </defs>
  <path class="cls-1" d="M319.55,2.21v106.09h-69.34c1.15,4.23-4.04,10.74-8,11.27-3.45.46,2.12-3.82,2.39-4.14,2.78-3.31,3.14-8.35-1.94-9.37-19.06-3.84-54.02,22.78-70.06,11.38-3.91-2.78-4.34-8.12-.64-11.22l-.89-.3c-7.62,3.87-14.96,9.05-21.05,15.11-3.3,3.28-5.55,9.3-11.24,8.01l.46-2.2,15.54-21.5c-.71-.56-6.12,3.07-7.19,3.77-2.59,1.69-12.83,10.16-14.44,10.46-1.19.22-.79-.16-.9-.9-.7-4.77,9.66-16.16,8.89-16.89-17.94,5.47-35.88,17.84-55.4,15.99-5.34-.51-12.1-3.73-13.35-9.47H3.36l-.89-.89V3.1l.89-.89h316.19ZM317.18,5.17H6.32l-.89.89v98.38l.89.89h66.08c.48-7.31,9.42-11.32,16-10.67.29,1.54-.29,1.04-1.18,1.46-3.66,1.7-6.15,1.61-8.89,5.36-9.18,12.54,7.49,12.84,15.69,12.14,16.49-1.42,31.87-12.32,47.26-16.16,1.45-.36,10-2.43,9.35.46l-8.89,10.68c-.09.46.54.36.89.3,3.62-.58,18.63-13.29,23.82-15.89,1.73-.87,3.85-2.36,5.56-.45.54.6.68.74.28,1.51-1.08,2.1-8.51,8.11-10.71,10.66-.71.82-4.43,5.21-3.84,5.94,4.53-2.08,15.52-11.08,19.86-11.3.98-.05,4.83.6,4.44,2.1-.15.58-7.42,3.09-8.25,8.34-1.16,7.34,5.32,6.65,10.91,6.18,16.64-1.4,42.18-17.32,57.59-13.71,2.1.49,5.51,3.05,5.84,3.05h69.05c.16-.43-.59-.71-.59-.89V6.06c0-.13.89-.68.59-.89Z"/>
  <path class="cls-1" d="M100.85,79.26c-7.16-7.68-9.91-21.63-21.93-23.11v20.45c0,1.66,3.67,3.55,5.34,3.27v1.18h-17.19c-.3-1.7.43-.97,1.31-1.33,2.13-.9,3.55-.85,3.99-3.74-.81-12.99,1.2-27.49.06-40.3-.11-1.28-.18-2.61-1.18-3.56-1.49-1.43-4.21-.11-4.19-2.63h22.23c.25,0,4.04,1.57,4.64,1.88,8.13,4.32,9.31,16.82,1.55,22.08-.77.52-5.13,2.08-4.7,2.7,7.96,2.98,11.69,20.09,18.37,23.12l-3.85,1.19,1.48-.6c-.42-1.62-2.18-.64-3.48-1.04l-.08,1.04-2.36-.59ZM78.93,54.36c7.34-.19,14.43-.94,14.84-9.75.44-9.58-5.79-13.72-14.84-12.77v22.52Z"/>
  <path class="cls-1" d="M47.22,29.47c9.04,1.21,15.6,11.64,9.39,19.4-1.83,2.29-4.9,2.78-6.72,4.89,13.57.12,19.18,18.13,6.91,25-1.02.57-4.56,2.27-5.43,2.27h-24.6c-.09-1.98,2.25-.92,3.87-2.36.79-.71,1.28-1.66,1.43-2.72-.81-12.99,1.2-27.5.06-40.3-.34-3.79-1.06-3.6-4.06-4.86-.87-.37-1.61.37-1.31-1.33,6.39.61,14.25-.83,20.45,0ZM40.24,31.97c-.77.16-1.67.54-1.98,1.33l-.14,18.31c2.42,2.02,7.38,1.16,9.95-.55,8.84-5.9,2.81-21.31-7.83-19.09ZM39.35,77.35c10.12,4.67,20.04-2.56,16.98-13.73-2.14-7.83-10.7-8.98-17.72-8.66.7,3.8-1.27,20.31.73,22.39Z"/>
  <path class="cls-1" d="M109.15,79.26c3.35,1.52,6.83-.02,7.13-3.84-1.23-12.51,1.63-28.13-.07-40.26-.15-1.08-.49-2.14-1.11-3.04l-4.17-2.65h30.52c1.53,1,1.18,8.89,0,8.88-1.17-3.03-2.6-6.51-6.52-6.51h-11.85l-.89.89v20.74c3.93,2.01,9.69.67,13.99-.19l3.19-4.25c.21,1.68.87,10.98.31,11.86-.37.58-.82.69-1.48.59.49-1.18-1.99-4.74-2.67-4.74h-12.45l-.89.89v17.19c0,1.49,1.19,3.37,2.8,3.72,3.4.75,12.93.62,15.53-1.99,1.35-.49,1.39-4.87,2.7-4.39,1.77.64-1.63,7.18-.88,8.88l-40.93-.28c-.58-.36-.42-1.36-.55-1.5l2.36.59.08-1.04c1.3.4,3.06-.58,3.48,1.04l-1.48.6,3.85-1.19Z"/>
  <path class="cls-1" d="M226.03,29.03c.49-.3,1.11-.11,1.66-.15l-.59,13.04c-2.19.1-1.84-2.71-2.71-4.1-7.54-12.07-27.14-8.5-32.96,4.29-11.43,25.09,11.57,50.28,34.79,30.64,1.75,3.28-5.04,6.75-7.6,7.81-25.55,10.52-48.09-18.82-31.71-41.2,6.73-9.19,16.26-12.15,27.45-11.06,2.61.25,9.36,3.11,10.99,2.06.39-.25.49-1.2.69-1.32Z"/>
  <path class="cls-1" d="M250.8,79.26c1.42-1.34,2.78-2.63,3.43-4.58l14.88-45.45,4.42-.38,17.76,49.04c1.02,1.42,4.77,1.08,4.56,3.14h-17.19c-.37-2.23,3.61-1.1,4.48-2.33,1.72-2.45-4.11-15.12-4.84-18.45l-16.74.12c-1.71,5.29-3.79,10.42-4.82,15.92-.06.32-.92.7-.53,1.94.45,1.46,2.11,1.06,2.31,2.2h-8.88c-.15-.73.72-.74,1.18-1.18ZM276.88,57.92c-1.07-5.47-3.09-11.29-5.06-16.57-.21-.57-1.96-5.89-2.63-5.36l-6.53,21.93h14.22Z"/>
  <path class="cls-1" d="M175.53,28.29v11.85c-2.1,0-1.89-2.88-2.84-4.57-4.47-7.98-17.13-5.71-17.93,3.66-.12,1.42-.16,3.89.15,5.23,1.77,7.94,21.41,10.62,22.94,21.51,2.26,16.12-16,19.67-27.46,13.27l-1.81,2.98c-1.51-.6.32-11.43-.91-13.32l1.77-.3c.22,13,23.62,16.32,23.15,2.09-.36-10.9-18.96-12.17-22.72-22.37-3.68-9.98,3.91-19.59,14.13-20.04,2.97-.13,5.9,1.39,8.28,1.25,1.56-.09,1.88-1.24,3.25-1.24Z"/>
  <path class="cls-1" d="M256.73,76.29c-.24,2.43,2.03,3.52,4.15,3.56v1.18h-29.63c-.28-1.57.31-1.04,1.19-1.45,2.61-1.25,3.57-.58,4.09-4.23-.78-12.76,1.23-27.11.08-39.68-.38-4.22-1.5-3.45-4.52-4.96-.64-.32-1.11.31-.84-1.24h16.59c.24,1.37-.08.95-.76,1.32-2.1,1.16-4.03,1.12-4.54,4.34,1.03,12.5-1.49,27.49-.05,39.69.53,4.46,4.46,5.52,8.31,4.43-.46.44-1.33.45-1.18,1.18h8.88c-.19-1.14-1.85-.75-2.31-2.2-.39-1.24.47-1.62.53-1.94Z"/>
</svg>