<?xml version="1.0" encoding="UTF-8"?>
<svg id="Capa_1" data-name="Capa 1" xmlns="http://www.w3.org/2000/svg" viewBox="0 0 484.35 137.94">
  <defs>
    <style>
      .cls-1 {
        fill: #2d302e;
      }
    </style>
  </defs>
  <path class="cls-1" d="M57.61,55.9c.88.16.56-.44.58-1.01.48-12.08-.36-24.45,0-36.56h27.37c-.23,1.64.24,3.22.31,4.79,1.14,26.79-.9,54.39,0,81.27-.15,2.39-.81,4.73-.89,7.12,0,.1,0,.19,0,.29-.39.61-1.18,2.06-.58,2.62-.1.26-.22.41-.29.58l-1.16,1.09c-.81,2.47-2.6,3.74-3.79,5.9-.2.09-.54-.02-1.03.27-.58.35-1.32,1.41-1.6,2.06-.08.04-.21-.04-.29,0-1.7.82-3.63,1.49-5.43,2.29-.48.21-1.04.04-.98.91-.19.02-.39,0-.58,0-3.54.05-8.26,1.41-12.38,1.75-.55.05-1.17-.33-1.01.58-.77.03-1.56-.02-2.33,0-2.08-.49-4.9-.49-6.99,0-.48-.02-.97.02-1.46,0,.16-.89-.45-.55-1.01-.58-2-.11-4-.33-5.98-.58-14.93-1.88-24.85-10.69-27.87-25.56-.29-1.43-.1-3.32-.96-4.43.23-3.58-.32-7.54,0-11.07,1.72-19.22,14.73-30.36,33.62-31.46,4.63-.27,9.82,0,14.43.3l.29-.29v-.29ZM48.88,113.85c-.16.87.45.58,1.01.59,2.19.04,4.87-.76,6.63-2.06.35-.26,1.68-1.93,1.68-2.17v-38.29c-.6-.12-.92-.51-1.59-.6-2.67-.34-6.95-.08-9.48.75-.47.15-1.04-.08-.87.72-.14.06-.42.21-.58.29-.17-.6-.87,0-1.14.17-3.45,2.17-5.95,6.82-6.68,10.79-1.42,7.67-1.02,28.32,8.92,30.33.56.11,1.1.34.95-.52.36.04.79,0,1.16,0Z"/>
  <path class="cls-1" d="M415.19,7.86c.92.79,2.16.82,3.31,1.5.47.28.53.61.77.83-.02.59.3.9.87.87.03.09-.04.21,0,.29.37.83.88,1.65.9,2.6l.56.02c.09.81.1,2.41,0,3.2-.77-.17-.56.4-.74.85-.45,1.11-.94,2.23-1.59,3.23-.08.13-.1.33-.29.58-.97-.21-.87.93-2.03.59v.58c-.19.01-.4,0-.59,0-.03,0,.04-.24-.43-.28-.71-.06-1.56.14-2.19-.15,1.5-.97,2.74-1.38,3.61-3.09.49-.95,1.41-3.34.17-4.05,0-.19,0-.39,0-.58,0-.12.38-.15.08-1.07-.36-1.08-.62-.87-1.24-1.26-.74-1.46-.47-.66-1.51-1.2-.51-.26-.02-.29-1.11-.55-.24-.06-.6.03-.87,0-.39-.05-1.29-.57-2.04-.29v.58c-.29-.01-.58,0-.87,0-.05,0-.23-.28-.46-.29-.6-.02-2.58.64-2.45,1.45-.09.03-.2-.03-.29,0-.57.17-1.64-.06-1.46.87-.08.04-.25-.05-.29,0-.58-.02-.89.28-.87.87-.2.11-.39.19-.58.29-1.31.67-.83.86-1.16,1.16-.11.1-.19.19-.29.29-.48.5-.68.31-1.46,1.46-12.68,18.81-8.36,49.65,2.28,68.62,3.17,5.64,10.92,16.98,15.48,21.35.14.41.44.59.87.58v.29c-.15.01-.4.24-.58.29-.4-.41-.93-.38-1.16-.58l-.29-.29c-14.22-12.51-24.32-32.65-26.75-51.43-1.8-13.91-.9-34.95,11.34-44.2,2.57-1.95,5.14-2.87,8.13-3.95h5.24Z"/>
  <path class="cls-1" d="M475.18,101.04v.87l-9.61,4.95c-3.48-12.94-11.3-24.52-23.66-30.08-.43-.19-.95-.04-.8-.79.55.08,1.22-.05,1.85.04,14,1.84,24.75,14.01,32.22,25.01Z"/>
  <path class="cls-1" d="M351.36,56.28c27.54-1.92,46.44,10.7,44.91,39.96-1.03,19.76-13.47,31.32-32.77,33.33-22.99,2.39-43.95-6.07-46.44-31.3-2.36-23.98,9.99-40.29,34.3-41.99ZM363.26,76.39c-3.39-3.21-9.71-3.24-13.15-.11-6.35,5.78-6.32,26.31-.84,32.6,4.18,4.79,12.3,3.9,15.68-1.46,4.13-6.56,4.23-25.44-1.68-31.03Z"/>
  <path class="cls-1" d="M121.97,98.71c-.23,5.48,5.69,9.36,10.32,10.79,6.88,2.12,17.65.86,24.55-1.1,3.02-.86,5.86-2.23,8.8-3.28v17.03c-6.97,4.31-16.13,6.65-24.32,7.42-24.77,2.32-46.6-5.84-47.91-33.62-.9-18.94,7.17-35.23,26.75-39.09,27.67-5.45,50.49,8.27,48.7,38.21-.07,1.09-.18,2.81-.74,3.63h-46.15ZM122.55,83.86h18.2c.67-.8-.03-2.97-.36-4.01-.88-2.83-3.27-7.1-6.28-7.99-7.23-2.14-11.46,5.94-11.57,12Z"/>
  <path class="cls-1" d="M312.99,98.71h-46.59c.27,6.98,8.09,10.73,14.16,11.61,4.61.67,10.41.12,15.02-.62,5.04-.81,9.84-2.58,14.49-4.58v17.47c-6.27,3.08-12.76,5.32-19.7,6.36-26.07,3.9-51.65-3.42-52.52-33.86-.63-21.96,10.68-37.78,33.34-39.19,15.81-.98,30.88,3.16,38.45,18.07,3.91,7.69,4.34,16.3,3.35,24.75ZM285.61,83.86c-.23-3.88-2.68-10.45-6.61-11.88-6.14-2.23-10.19,3.2-11.48,8.49-.14.58-.95,3.39-.11,3.39h18.2Z"/>
  <path class="cls-1" d="M444.89,22.71c3.92-.68,8.99-.83,12.97-.59,1.18.07,4.36.38,5.31.79.88.38.71,4.18.64,5.19-1,14.71-11.45,32.55-23.78,40.57-2.68,1.74-6.1,2.79-8.45,4.37-.59.4-1.63,1.01-1.11,1.81,3.18-.48,6.08.72,9.07,1.13.53.07,1.1-.04,1.56.03-.16.75.36.6.8.79,12.37,5.55,20.19,17.13,23.66,30.08.16.6.75,3.72.54,4.04-9.48,2.5-20.1,1.91-29.36-1.29-2.21-.76-4.54-2.19-6.71-2.75-.04-.14-.15-.26-.29-.29-.18-.04-.42.04-.58,0,.17-.73-.4-.58-.77-.82-1.72-1.09-3.32-2.04-5.06-2.97.05-.66-.45-.75-.83-1.06-31.05-25.47-17.19-70.75,20.92-78.72.44-.09,1.02-.22,1.46-.29Z"/>
  <path class="cls-1" d="M205.25,105.7c.1-.8-.09-.85-.71-1.19-1.43-.77-3.08-.85-4.48-1.34-4.63-1.65-14.51-4.76-18.32-7.16-.28-.18-4.43-4.08-4.87-4.59-2.96-3.41-2.78-4.83-3.66-8.81-.05-.23-.53-.07-.6-.62-.15-1.15-.08-4.01.09-5.19,3.3-22.75,38.97-24.18,55.06-15,.46.26.4.96,1.07.81.02.19-.01.39,0,.58-.44.04-.44.83,0,.87.14,3.94.11,8.28,0,12.23l-.99.59c-2.65-.99-5.34-2.31-8.07-3.03-2.42-.64-4.3-.76-6.66-.77-.19,0-.39,0-.58,0-.04-1.27-3.66-.99-4.53-.89-.66.07-1.01.1-1,.89-.19,0-.39,0-.58,0-.05,0-.24-.28-.47-.29-2.96-.04-6.8,2.84-5.43,6.04.38.89,3.74,2.49,4.79,2.78.42.12,1.11.47,1.4-.09.19.1.39.2.58.29,4.54,2.2,9.72,3.96,14.35,6.2,2.68,1.29,4.7,2.53,7.2,4,1.91,2.77,5.17,6.02,6.1,9.24,1.97,6.84,0,10.6-2.31,16.67-1.67,1.04-2.42,2.53-3.93,3.79-4.63,3.84-8.51,4.68-14.03,6.35-.56.17-1,.15-.97.93-.18.03-.4-.03-.58,0-1.65-.63-3.91.22-5.67.3-4.45.22-9.53.08-13.9-.68-6.05-1.05-12.6-3.08-17.7-6.47v-17.33c.7.29,1.66.68,2.3,1.05,4.98,2.84,9.55,5.51,15.4,6.44,2.39.38,12.43,1.09,13.61-1.09.18-.34.08-.62.14-.86.09-.04.36.09.53-.04l.15-.31c.37-.84.32-3.19-.46-3.66-.28-.17-.57-.02-.8-.07-.05-.13.06-.39,0-.57-.28-.07-.6.03-.87,0-.18-.03-.42.04-.58,0Z"/>
  <path class="cls-1" d="M410.06,122.2c0,4.35-3.53,7.88-7.88,7.88s-7.88-3.53-7.88-7.88,3.53-7.88,7.88-7.88,7.88,3.53,7.88,7.88ZM405.87,125.79l1.19.11c3.14-5.09-.67-10.94-6.67-9.52-.23.05-2.42.93-.93.97-.02.01.07.36-.09.5-.23.21-.74.04-.79.08.08-.93-.17-.58-.58-.15-4.49,4.69-.53,11.55,5.84,10.21.66-.14,1.83-.64,2.02-1.33.04-.16.03-.67,0-.87Z"/>
  <path class="cls-1" d="M444.89,22.71c-.43.07-1.01.2-1.46.29.58-1.27-1.04-6.58-2.17-6.72-.57-.07-1.39,0-1.98.09-15.11,2.3-29.6,15.05-35.5,28.85-8.89,20.81-.49,46.86,19.56,57.56,1.74.93,3.34,1.87,5.06,2.97.37.24.93.09.77.82-5.99-1.54-14.33-8.3-18.34-12.97-23.15-26.95-8.79-67.81,24.39-76.93,1.53-.42,6.14-1.86,7.17-.64l2.5,6.67Z"/>
  <path class="cls-1" d="M57.61,55.9V19.93c0-.66.19-2.17,1.02-2.17h27.52l.02,86.93-.41,4.89-.77,1.94c.07-2.39.74-4.73.89-7.12-.9-26.88,1.14-54.47,0-81.27-.07-1.57-.53-3.16-.31-4.79h-27.37c-.36,12.1.48,24.48,0,36.56-.02.56.3,1.17-.58,1.01Z"/>
  <path class="cls-1" d="M207.28,110.36c.59-2.28.11-2.22-.58-4.08-.26-.05-.59.04-.87,0v-.58c.27.04.59-.06.87,0,.07.18-.04.45,0,.57.23.04.52-.11.8.07.77.47.83,2.82.46,3.66l-.15.31c-.16.13-.44,0-.53.04-.06.25.04.53-.14.86-1.17,2.18-11.21,1.47-13.61,1.09-5.85-.93-10.42-3.6-15.4-6.44-.64-.37-1.6-.76-2.3-1.05v17.33c5.1,3.39,11.65,5.42,17.7,6.47,4.38.76,9.45.9,13.9.68,1.75-.09,4.02-.94,5.67-.3-10.06,1.78-20.84.96-30.43-2.62-2.5-.93-5.24-2.18-7.42-3.65v-19.07c2.83,1.28,5.35,3.18,8.16,4.51,7.51,3.56,16.13,5.84,23.87,2.19Z"/>
  <path class="cls-1" d="M228.83,62.6c-.67.15-.61-.55-1.07-.81-16.09-9.18-51.76-7.74-55.06,15-.17,1.18-.24,4.04-.09,5.19.07.54.55.38.6.62.88,3.99.7,5.4,3.66,8.81.44.51,4.58,4.42,4.87,4.59,3.81,2.4,13.69,5.51,18.32,7.16,1.4.5,3.05.57,4.48,1.34.62.33.81.38.71,1.19-2.01-.5-4.87-2-7-2.76-11.26-3.97-25.59-7.48-26.19-22.14-.96-23.19,27.57-27.59,45.08-23.53,3.94.91,8.08,2.45,11.55,4.48.22.26.11.58.15.86Z"/>
  <path class="cls-1" d="M228.83,92.01c3.79,2.22,6.81,8.03,7.24,12.41.36,3.59-.28,11.52-3.46,13.5-2.19,5.77-13.2,9.95-18.93,11.07-.04-.78.4-.75.97-.93,5.51-1.67,9.4-2.51,14.03-6.35,1.52-1.26,2.26-2.74,3.93-3.79,2.3-6.07,4.28-9.83,2.31-16.67-.93-3.22-4.19-6.47-6.1-9.24-2.5-1.46-4.53-2.71-7.2-4-4.63-2.23-9.81-3.99-14.35-6.2,5.05,1.57,10.19,3.26,14.95,5.58,2.57,1.25,4.98,2.27,6.6,4.62Z"/>
  <path class="cls-1" d="M213.11,73.08c2.36,0,4.23.13,6.66.77,2.74.72,5.43,2.04,8.07,3.03l.99-.59c-.01.47.29,1.95-.42,1.74-1.96-.58-4.27-1.99-6.33-2.69-2.91-.99-5.96-1.65-8.96-2.25Z"/>
  <path class="cls-1" d="M206.41,73.08c-1.6.61-3.78.82-4.78,2.36-2.53,3.9,2.39,4.73,5.07,6.09-.29.56-.97.21-1.4.09-1.05-.29-4.41-1.9-4.79-2.78-1.37-3.19,2.47-6.07,5.43-6.04.23,0,.42.28.47.29Z"/>
  <path class="cls-1" d="M69.26,127.54c-4.11,1.48-9.03,2.13-13.39,2.33-.16-.91.46-.53,1.01-.58,4.13-.35,8.84-1.7,12.38-1.75Z"/>
  <path class="cls-1" d="M206.99,73.08c0-.79.35-.82,1-.89.87-.1,4.49-.38,4.53.89-1.84,0-3.69,0-5.53,0Z"/>
  <path class="cls-1" d="M417.52,15.43c1.24.71.31,3.1-.17,4.05-.87,1.71-2.11,2.12-3.61,3.09.63.3,1.47.09,2.19.15.47.04.41.28.43.28-1.39.71-3.37.14-4.74-.36-.31-.11-.86-.1-.8-.51,2.34.21,4.3-.39,5.69-2.32,1.04-1.45.93-2.74,1.01-4.38Z"/>
  <path class="cls-1" d="M76.25,124.33c-1.06,1.2-4.9,3.08-6.41,3.2-.06-.87.5-.7.98-.91,1.8-.8,3.73-1.47,5.43-2.29Z"/>
  <path class="cls-1" d="M38.1,128.7c1.98.25,3.98.47,5.98.58.56.03,1.17-.31,1.01.58-2.18-.1-5.05-.15-6.99-1.16Z"/>
  <path class="cls-1" d="M419.27,108.03c.54-.05,2.26,2.12,2.04,2.33-.69-.08-1.71-.71-2.2-1.16-.37-.34-.36-.81-.42-.88.19-.05.43-.28.58-.29Z"/>
  <path class="cls-1" d="M421.6,17.18c-.14,1.13-.99,3.88-2.33,4.08.65-1,1.14-2.12,1.59-3.23.18-.45-.03-1.02.74-.85Z"/>
  <path class="cls-1" d="M53.54,129.87c-2.29.06-4.7.07-6.99,0,2.08-.49,4.9-.49,6.99,0Z"/>
  <path class="cls-1" d="M84.11,115.02c-.82,1.89-3.18,6.19-4.95,6.99-.66,1.2-1.36,1.7-2.62,2.33.28-.65,1.02-1.71,1.6-2.06.49-.29.82-.18,1.03-.27,1.19-2.17,2.98-3.43,3.79-5.9l1.16-1.09Z"/>
  <path class="cls-1" d="M409.95,11.06c-.85.52-1.96.87-2.91,1.16-.13-.81,1.85-1.47,2.45-1.45.23,0,.42.29.46.29Z"/>
  <path class="cls-1" d="M413.74,10.77c1.09.26.6.29,1.11.55,1.04.53.77-.26,1.51,1.2.62.39.88.18,1.24,1.26.31.92-.08.95-.08,1.07-.51-.7-.78-1.56-1.16-2.33-.8-.5-1.66-1.04-2.58-1.21l-.04-.54Z"/>
  <path class="cls-1" d="M420.14,11.35c.99,0,1.37,1.77,1.46,2.62l-.56-.02c-.02-.95-.53-1.77-.9-2.6Z"/>
  <path class="cls-1" d="M412.86,10.77c-.53.45-1.35.32-2.04.29v-.58c.75-.28,1.64.24,2.04.29Z"/>
  <path class="cls-1" d="M402.09,15.72c-.06.84-.76,1.17-1.46,1.46.77-1.15.98-.95,1.46-1.46Z"/>
  <path class="cls-1" d="M403.54,14.26c.06.48-.64,1.15-1.16,1.16.33-.3-.15-.49,1.16-1.16Z"/>
  <path class="cls-1" d="M406.75,12.23c-.23.74-1.01.65-1.46.87-.18-.93.88-.7,1.46-.87Z"/>
  <path class="cls-1" d="M405,13.1c-.32.36.22.28-.87.87-.02-.59.29-.9.87-.87Z"/>
  <path class="cls-1" d="M420.14,11.06c-.58.02-.9-.28-.87-.87.08.07.51,0,.73.28.16.17.08.44.14.59Z"/>
  <path class="cls-1" d="M418.98,21.84c-.45.61-1.26,1.11-2.04,1.16v-.58c1.17.34,1.07-.8,2.04-.59Z"/>
  <path class="cls-1" d="M84.99,111.81c.02.83-.18,1.55-.58,2.62-.6-.56.19-2.01.58-2.62Z"/>
  <path class="cls-1" d="M228.83,64.06c-.44-.04-.44-.83,0-.87.02.29-.01.58,0,.87Z"/>
  <path class="cls-1" d="M419.27,107.74c-.43,0-.73-.17-.87-.58.17.16.71.24.87.58Z"/>
  <path class="cls-1" d="M57.32,56.49l.29-.29-.29.29Z"/>
  <path class="cls-1" d="M430.04,106.86c-.13-.03-.24-.17-.29-.29.14.03.25.16.29.29Z"/>
  <path class="cls-1" d="M417.52,107.74c-.1-.09-.19-.2-.29-.29l.29.29Z"/>
  <path class="cls-1" d="M46.26,72.79c-.17-.79.4-.56.87-.72,2.53-.84,6.81-1.1,9.48-.75.66.09.99.48,1.59.6v38.29c0,.24-1.33,1.91-1.68,2.17-1.76,1.3-4.44,2.09-6.63,2.06-.56,0-1.17.28-1.01-.59,2.7.05,6.16-.46,7.86-2.77.16-.22.87-1.37.87-1.46v-37.42c-3.36-.38-8.17-.73-11.36.58Z"/>
  <path class="cls-1" d="M45.68,73.08c-9.75,5.03-8.86,24.32-5.83,33.06,1.3,3.76,3.55,7.17,7.87,7.71.15.86-.39.63-.95.52-9.93-2.01-10.33-22.66-8.92-30.33.73-3.97,3.23-8.62,6.68-10.79.27-.17.97-.77,1.14-.17Z"/>
  <path class="cls-1" d="M423.35,102.79c-20.05-10.7-28.45-36.75-19.56-57.56,5.9-13.8,20.39-26.55,35.5-28.85.59-.09,1.41-.16,1.98-.09,1.13.14,2.76,5.45,2.17,6.72-38.11,7.97-51.98,53.26-20.92,78.72.38.31.88.4.83,1.06Z"/>
  <path class="cls-1" d="M405.87,125.79c.03.2.04.72,0,.87-2.94.42-2.92-1.28-3.79-3.49-.42-.41-.53.02-.58.43-.1.78.09,1.7,0,2.48h-.87s0,.58,0,.58c-.34.03-.83.04-1.16,0v-.58s-.58,0-.58,0c-.29-.78-.59-7.87-.29-8.15.05-.05.56.13.79-.08.16-.14.06-.49.09-.5.39-.25,3.46.17,4.14.37,2.53.78,3.19,3.45.94,4.87-.36.53,1.19,2.15,1.33,3.2ZM402.92,119.72c-.09-.15-1.32-.43-1.41-.33v2.04c1.14.41,1.94-.85,1.41-1.71Z"/>
  <path class="cls-1" d="M401.51,126.08c-.02.19.03.39,0,.58-.29.03-.59-.02-.87,0v-.58s.87,0,.87,0Z"/>
  <path class="cls-1" d="M398.89,126.08h.58s0,.58,0,.58c-.17-.02-.37.08-.54-.04-.13-.13,0-.42-.04-.54Z"/>
</svg>