<?xml version="1.0" encoding="UTF-8"?>
<svg id="Capa_1" data-name="Capa 1" xmlns="http://www.w3.org/2000/svg" viewBox="0 0 345.37 121.88">
  <defs>
    <style>
      .cls-1 {
        fill: #3a3a3a;
      }
    </style>
  </defs>
  <path class="cls-1" d="M339.21,24.98c-2.01,2.54-4.97,1.44-7.57,2.01-12.07,2.64-19.26,8.38-25.14,19.05-2.11,3.83-1.06,8.14-6.55,5.61-10.46-4.83-13.03-7.14-25.98-5.71-2.29.25-6.51,2.47-7.96,2.11-1.61-.39-3.43-6.01-4.62-7.93-6.67-10.69-17.26-19.14-30.24-20.58-24.15-2.67-41.53,8.76-48.99,31.5-1.4,1-8.8-3.72-10.6-4.4-20.62-7.75-45.54-3.37-59.73,13.99-14.1-25.87-49.34-40.56-77.92-33.62-10.29,2.5-18.42,8.12-27.1,13.77.55-8.88-3.79-16.6,4.47-23.12,20.77-16.38,56.86-11.92,78.83-.07,9.76,5.27,16.85,11.94,24.09,20.17,1.55.4,5.99-3.47,7.83-4.46,12.94-6.99,24.26-9.4,38.96-7,4.46.73,14.62,4.92,17.13,4.89.81,0,1.79-.4,2.42-.93,1.26-1.05,5.4-8.69,7.56-11.2,18.64-21.71,53.08-22.12,71.89-.36,2.45,2.84,5.97,10.14,9.2,10.72,2.69.49,5.81-1,8.49-1.14,5.15-.27,9.7-.16,14.56,1.63,2.46.9,6.1,3.89,8.25,3.56s3.2-4.67,4.51-6.6c4.79-7.09,11.13-12.72,19.63-14.98,4.25-1.13,10.82-2.49,14.58-.16v13.24Z"/>
  <path class="cls-1" d="M10.28,52.72c3.12-.69,12.49-.42,15.97-.07,23.11,2.31,37.17,26.99,26.9,48-7.72,15.79-25.94,20.29-42.33,18.15-6.12-.8-3.81-10.25-3.99-15.15-.19-5.16,0-9,0-13.91,0-10.48-1.46-22.86-.07-33.17.29-2.13,1.33-3.37,3.51-3.85ZM20.66,60.12c-3.35.33-5.83.89-6.44,4.62-.99,6.04-.97,35.75,0,41.84,1.36,8.56,16.03,4.36,21.35,1.53,24.4-13.01,12.31-50.67-14.9-47.99Z"/>
  <path class="cls-1" d="M185,71.87c5.33-.78,10.07.07,14.83,2.47,4.22,2.12,12.42,8.61,6.67,13.11l-25.44,18.03c-3.34,3.86,4.48,5.87,7.46,5.94,4.29.11,10.27-2.91,12.86-6.28,2.86-3.72,2.59-10.77,8.33-9.05,5.55,1.67-.8,12.32-3.15,14.95-10.07,11.27-29,10.14-37.48-2.34-9.55-14.06-1.13-34.35,15.92-36.83ZM189.35,79.32c-7.54-.08-15.62,5.58-16.64,13.38-.34,2.61-.55,7.35,3.21,6.96l20.35-14.33c2.93-4.39-3.72-5.98-6.92-6.02Z"/>
  <path class="cls-1" d="M267.56,71.89c5.1-.55,9.48.18,14.08,2.45,4.19,2.07,11.69,7.96,7.1,12.8l-25.85,18.32c-3.65,3.52,3.83,5.81,6.7,5.97,4.58.25,9.87-2.11,12.86-5.57,3.35-3.86,3.45-11.47,9.08-9.77s-1.45,13.17-3.87,15.7c-8.24,8.61-21.7,9.3-31.23,2.42-17.3-12.49-9.79-40.06,11.13-42.33ZM255.26,99.57c1.46.43,2.61-.19,3.87-.79,3.16-1.49,14.85-9.88,17.81-12.38s2.03-5.95-1.5-6.61c-12.49-2.32-23.98,6.91-20.18,19.77Z"/>
  <path class="cls-1" d="M101.33,72.6c1.59-1.61,4.44-.61,5.77.87l.3,43.06c-3.59,5.52-6.53-.34-8.82-.43-1.59-.07-6.29,2.46-9.56,2.68-12.37.82-22.42-8.57-22.57-20.99-.07-6.05.09-12.3,0-18.38-.06-4.49,3.18-11.28,7.02-6.21,2.5,3.3.53,20.63,1.14,26.07,1.78,15.85,23.99,16.67,25.79-1.48.44-4.4-1.03-23.22.92-25.19Z"/>
  <path class="cls-1" d="M302.54,117.84c-.48-.47-.88-1.77-.89-2.45-.05-5,12.91-15.18,12.56-20.54-.27-4.26-13.04-15.56-12.62-19.83.13-1.35,1.97-3.21,3.36-3.36,4.93-.51,11.56,15.49,15.45,15.49,4.72,0,12.78-23.73,18.63-12.05-.51,5.08-13.3,16.68-13.12,20.42s13.45,16.1,13.12,19.81c-.12,1.38-1.75,3.24-3.2,3.45-5.34.76-11.93-15.51-15.44-15.5-4.15.01-12.03,20.39-17.88,14.55Z"/>
  <path class="cls-1" d="M234.55,111.4l-.32,6.66c-6.34,2.64-13.29-.89-14.37-7.81-2.43-15.48,1.73-36.81-.06-52.93-.01-2.05,1.32-4.31,3.5-4.65,7.51-1.15,2.97,15.02,5.29,17.97s13.57-2.03,10.81,6.22c-1.85,5.54-10.47.28-11.45,5.5-1.36,7.25.85,18.61.12,26.32,1.25,2.49,3.96,2.9,6.49,2.72Z"/>
  <path class="cls-1" d="M119.37,71.79c.86-.24,1.64-.24,2.42.24,2.19,1.1,10.62,23.09,12.63,27.13,1.21,2.44,2.68,6.56,5.37,2.63l13.69-29.76c6.15-.87,5.64,2.43,4.04,7-3.33,9.46-11.12,27.68-15.92,36.33-1.96,3.53-4.17,5.31-7.18,1.46-4.61-11.78-10.59-23.09-15.19-34.86-1.14-2.92-4.7-8.83.14-10.16Z"/>
</svg>