<?xml version="1.0" encoding="UTF-8"?>
<svg id="Capa_1" data-name="Capa 1" xmlns="http://www.w3.org/2000/svg" viewBox="0 0 500 204.47">
  <defs>
    <style>
      .cls-1 {
        fill: #2d302e;
      }
    </style>
  </defs>
  <path class="cls-1" d="M286.67,21.14v97.09h-12.47l-.25-2.98c-17.96,10.36-41.29-3.63-44.93-22.88-5.23-27.7,19.13-47.93,45.17-37.37V21.14h12.48ZM274.09,102.2l-.36-34.04c-12.35-9.67-31.59-1.34-33.4,14.03-2.24,18.93,18.23,30.74,33.76,20.01Z"/>
  <rect class="cls-1" x="478.74" y="21.14" width="12.47" height="97.09"/>
  <path class="cls-1" d="M162.95,21.14c-.44,3.5.61,8.4,0,11.7-.1.56-.25.93-.75,1.25h-11.22v-12.95h11.97Z"/>
  <path class="cls-1" d="M477.69,158.6c2.35,4.39,6.9,8.1,9.55,12.14.32.48.62.84.51,1.48-13.76,8.19-30.39,12.26-46.25,14.16-31.07,3.73-63.87.73-94.57-4.57-70.86-12.25-136.43-44.75-209.17-47.66-39.87-1.6-85.34,3.15-117.82,27.87l-11.17-13.65c13.16-10.47,28.98-17.26,45.2-21.63,54.49-14.66,117.05-4.6,170.21,11.28,16.59,4.96,32.87,10.97,49.51,15.82,53.52,15.6,127.67,30.78,181.97,14.32,7.84-2.38,14.91-5.59,22.02-9.55Z"/>
  <path class="cls-1" d="M433.23,53.64c23.91-2.87,41.49,15.14,37.96,38.89-5.84,39.27-68.4,35.18-64.81-10.41,1.09-13.9,12.84-26.79,26.85-28.47ZM436.22,65.58c-23.95,3.27-23.86,40.21,1.94,41.64,29.24,1.62,27.69-45.68-1.94-41.64Z"/>
  <path class="cls-1" d="M221.82,118.23h-12.47v-40.58c0-2.53-1.65-7.63-3.29-9.66-5-6.21-18.4-4.3-22.25,2.6-.37.66-2.4,5.27-2.4,5.57v42.07h-12.47V52.75l.75-.75h11.72v5.48c12.94-10.22,33.8-7.62,39.14,9.48.31,1,1.27,4.45,1.27,5.2v46.06Z"/>
  <path class="cls-1" d="M308.12,54v37.59c0,1.16.85,4.91,1.25,6.22,1.13,3.74,3.92,7.01,7.98,7.47,5.29.59,12.39-.09,15.63-4.81.44-.64,3.08-6.04,3.08-6.39v-40.08h12.47v63.73h-12.47v-5.48c-11.94,10.02-32.52,7.95-38.42-7.71-.47-1.24-1.98-6.01-1.98-6.98v-43.57h12.47Z"/>
  <path class="cls-1" d="M402.91,55.49v13.94c-17.15-8.28-36.61-4.84-35.94,17.7s21.79,21.27,37.44,15.17v13.94c-18.54,5.94-41.94,2.76-48.25-18.32-7.32-24.43,10.76-48.92,36.89-44.78,3.36.53,6.51,1.84,9.87,2.35Z"/>
  <path class="cls-1" d="M54.76,70.01c1.61-.9,3.18-.5,4.84,0,.95,8.54,2.36,17.47,10.4,22.23,6.73,3.99,20.05,5.51,27.61,3.85,13.9-3.05,17.1-15.08,3.65-22.1-11.65-6.09-24.49-6.53-36.09-.07-3.05-8.73-1.51-12.22,7.47-14.2,14.35-3.15,30.57.72,38.63,13.74s-.01,28.13-15.41,29.35c-20.61,1.63-45.05-8.38-41.1-32.8Z"/>
  <rect class="cls-1" x="150.98" y="52.51" width="11.97" height="64.73"/>
  <path class="cls-1" d="M459.28,137.65c-.53,5.53,5.8,8.69,9.48,4.23,1.14-1.38.46-2.78,2.99-2.24-3.42,11.82-18.16,5.49-14.21-6.47,2.22-6.72,11.51-7.01,13.87-.41.29.8,1.35,4.89.09,4.89h-12.22ZM469.76,135.66c-.04-7.95-10.28-7.78-10.48,0h10.48Z"/>
  <path class="cls-1" d="M405.9,122.21v8.46c.78.03.57-.93,1.3-1.44,2.03-1.4,6.94-1.78,8.69.18.32.36,1.48,2.73,1.48,3v12.7h-2v-11.2c0-3.29-3.96-5.35-6.96-3.46-.57.36-2.52,2.49-2.52,2.96v11.7h-2.49v-22.9h2.49Z"/>
  <path class="cls-1" d="M369.24,127.96c10.46,0,9.9,16.37,1.97,17.62-12.95,2.05-13.21-17.63-1.97-17.62ZM368.37,129.78c-6.92,1.01-6.5,14.28.87,14.27,8.03,0,7.53-15.5-.87-14.27Z"/>
  <path class="cls-1" d="M486.72,133.66c-2.15.48-1.97-1.73-2.97-2.76-1.9-1.95-7.06-1.66-7.06,1.52,0,4.53,11.2,1.93,10.88,8.39-.34,6.82-14.28,6.7-13.82-1.16,3.03-.7,2.15,2.06,3.5,3.23,2.16,1.86,7.73,1.35,8.02-1.99-.01-4.85-11.25-1.84-10.99-8.42.24-6.19,13.72-6.07,12.44,1.2Z"/>
  <path class="cls-1" d="M426.22,128.3c6.77-1.37,11.18,2.82,10.62,9.59-.87,10.54-15.84,10.65-16.01-.99-.05-3.35,1.79-7.88,5.39-8.61ZM432.67,142.46c6.25-5.89-2.25-17.91-8.04-10.77-5.32,6.56,2.19,16.28,8.04,10.77Z"/>
  <path class="cls-1" d="M439.83,128.19h1.99s0,2.49,0,2.49c2.25-2.4,4.83-3.12,8.12-2.38,1.01.23,3.35,2.28,3.35,3.13v13.69h-2v-12.2c0-3.18-5.11-4.1-7.51-2.02-.57.49-1.96,2.98-1.96,3.52v10.71h-2v-16.93Z"/>
  <path class="cls-1" d="M358.51,133.66c-.17.16-1.57.01-2-.24-.95-.57-.57-2.63-3.07-3.41-7.45-2.32-10.33,9.95-4.26,13.21,3.47,1.86,6.88-.33,7.39-4.02l1.93-.06c.13,3.26-2.46,6.11-5.72,6.48-13.1,1.47-11.71-21.53,2.1-17.05,1.56.51,4.63,4.16,3.62,5.09Z"/>
  <path class="cls-1" d="M399.92,133.66l-1.91-.08c-4.17-8.71-13.02-1.47-9.91,6.65,2.05,5.34,9.77,4.88,9.85-1.07.72.1,2.79-.59,2.42.66-2.11,9.51-16.46,7.42-14.92-4.93,1.02-8.24,13.59-9.85,14.48-1.23Z"/>
  <rect class="cls-1" x="379.96" y="122.21" width="2.49" height="22.9"/>
</svg>