<?xml version="1.0" encoding="UTF-8"?>
<svg id="Capa_1" data-name="Capa 1" xmlns="http://www.w3.org/2000/svg" viewBox="0 0 464.59 205.71">
  <defs>
    <style>
      .cls-1 {
        fill: #2d302e;
      }
    </style>
  </defs>
  <path class="cls-1" d="M68.22,11.83c1.89,1.76.34,2.66.08,4.08-.38,2.14,1.11,5.44,2.51,7.1.33.07,5.41-3.41,5.6-3.73.4-.66-.6-1.65-.05-2.79,1.08-2.25,4.91-1.07,5.41,1.16,0,1.15-2.56,2.93-3.7,3.08l.42,3.21c.21.19,3.44-1.32,3.73-1.63.71-.77.45-1.98.9-2.72,1.12-1.86,5.69.24,3.81,2.76-1.04,1.39-6.42,2.01-3.77,5.1.63.38,5.87.4,6.69.14.98-.3.99-1.44,1.57-1.8,1.96-1.22,4.04.25,3.8,2.48-.27,2.49-3.84,1.46-5.63,1.86-4.04.9-8.92,7.82-9.66,11.79l3.21,5.13c.35.22,4.78-2,5.77.3.76,2.09.1,4.43-.99,6.28-.96,1.62-2.66,2.29-3.22,3.07s-.87,3.17-1.46,4.37c-.84,1.73-2.29,3.22-3.35,4.81,5.55-.17,9.8,2.81,11.18,8.18l10.27-.04,11.93-9.53.29-7.63,2.27-.77c-2.88-4.96,5.83-12.69,3.96-16.77-.35-.75-1.71-1.25-1.99-2.2-.65-2.15-.02-3.14,1.82-4.04,3.25-1.6,4.93.76,8.35.18v-4.33c-3.48-2.15-5.15-5.33-2.33-8.95,4.63-5.95,14.14-.82,11.31,6.17-.78,1.94-4.22,3.02-4.35,4.07-.54,4.24,3.16,2.03,3.56,6.75.28,3.26-.16,8.7-.22,12.37-.09,5.85-3.21,9.67-8.83,11.04l-3.81,25.56-4.68-1.24,2.31-19.23-2.76-.73-14,11.64c7.02,4.4,6.72,10.4.47,15.38,5.2,2.64,10.54,5.06,9.22,12.01-.67,3.5-6.25,8.41-6.29,8.96-.03.35,1.01,2.02,1.16,2.91,1.14,6.75-4.03,11.04-9.08,14.48-1.91,1.31-8.16,4.12-9.01,4.99-.6.62-.75,1.91-1.39,2.8-3.13,4.38-7.58,5.19-12.62,6.28,1.57,2.87,6.42,6.37,6.06,9.97-.28,2.85-8.13,11.27-7.87,12.57.38,1.87,4.9,2.05,6.44,3.35,1.12.94,3.05,4.58,4.06,4.77,3.63-.69,7.5-3.71,10.93-1.09,4.7,3.59.37,7.78-3.14,9.96-8.12,5.04-13.83,1.83-19.15-4.99-1.29-.33-3.18,1.74-4.57,1.76-.69.01-5.79-1.78-6.09-2.27-.77-1.28.42-8.49,1.24-9.97,1.42-2.56,4.58-3.35,7.31-3.19.82-2.77,7.83-9.46,7.58-11.77-.06-.59-6.95-9.09-7.49-9.33-1.31-.6-6.2-.33-8.76-1.04s-5.25-3.32-5.57-3.4c-.86-.22-2.16.16-3.16,0-4.73-.76-4.87-2.16-8.41,1.86-3.16,3.6-5.52,9.08-6.89,13.63-.51,1.71-1.81,5.59-1.77,7.14.06,2.03,5.21,5.08,6.8,6.72.88.9,4.11,5.65,4.43,5.83.87.49,4.31.65,5.85,1.15,11.64,3.76,3.97,15.8-6.52,14.43-5.7-.74-10.02-5.93-12.87-10.48-.65-.31-1.31,1.25-2.34.96-.41-.12-6.13-4.99-6.3-5.37-.81-1.76.75-2.22,1.08-3.58.24-.98-.05-2.09.2-3.06,1.09-4.2,3.11-5.64,7.3-6.46.16-7.12,2.55-14.36,6.68-20.13.85-1.19,4.13-4.48,4.36-5,.49-1.1-.36-2.05.17-3.49,1.38-3.75,8.66-5.4,12.17-6.06,8.07-1.51,18.86-1.82,26.47,1.56,1.82.81,3.06,2.12,4.85,2.66,2.46-.46,11.3-7.64,13.03-9.81,1.82-2.28,4.5-6.18-.19-6.74-7.3,3.98-14.85,6.73-23.05,8.24-9.04,1.67-30.9,3.78-38.94.02-5.02-2.34-4.57-5.55-.59-8.73l8.17-4.66h-8.17c-.9,0-4.77-2.7-5.33-2.31-.99,3.53-8.69,8.96-12.01,9.15-2.87.16-6.24-2.34-8.35-4.05-.82-1.3.48-2.17.62-3.13.18-1.24-1-2.23.58-3.62,1.22-1.07,2.51-.07,1.85-3.28-.28-1.36-1.84-1.23-3.04-2.09-2.14-1.53-2.85-3.68-2.53-6.25.14-1.15,1.2-2.72,1.2-3.31,0-.64-1.79-2.72-2.05-4.3-.99-5.82,3.55-10.14,9.04-10.79,8.05-.96,15.02,2.23,21.89,5.87,5.01-4.31,11.62-5.72,17.97-6.86-.55-4.76-2.68-4.13-5.75-6.15-2.43-1.6-5.04-3.46-6.78-5.81-.63-.85-1.84-3.7-2.02-3.81-1.18-.71-2.84.66-5.06-2.17-3.9-4.98-1.93-14.46,5.6-10.95,1.12-5.04,4.39-9.37,9.82-10.01l.47-15.31c-4.05-.82-6.12-6.07-1.15-6.82,4.45-.67,3.42,2.8,4.61,5.59.34.79,3.05,4.82,3.75,4.64,2.49-2.33,2.51-4.5,3.05-7.65-2.72-1.46-3.36-3.1-.48-4.93h2.33ZM129.23,19.85c-3.12.93-3.02,6.69.38,7.35,7.43,1.45,6.83-9.49-.38-7.35ZM75.68,23.02c-2.12.93-4.35,2.45-6.22,3.82-1.7,1.24-3.34,2.52-4.76,4.1l-6.3-8.38c-.72,3.84.92,8.81.49,12.38-.12.98-.9,1.67-.87,2.22.08,1.91,5.44,5.89,7.16,6.37.87.24.9-.33.47-.94-1.23-1.76-6.07-2.15-5.85-5.11,1.89.12,2.81,1.95,4.34,2.88,3.16,1.94,7.92,2.93,11.55,2.03,2.54-.62,1.49-1.72,2.36-3.7,1.66-3.78,4.82-6.95,7.88-9.6-3.69.24-7.16,1.84-10.27,3.72v-9.79ZM132.99,34.33c-2.05-1.92-5.07.87-6.41,2.44,1.51,2.57,3.21,0,4.33.28l2.43,2.28c1.4-.87.49-4.2-.35-4.99ZM124.17,35.2c-.7-1.14-3.62-.29-4.12,1.1,7.01,5.21-3.38,13.08-2.25,19,.27,1.39,2.14,3.59,3.41,4.07.92.35.68-.61.81-1.02.53-1.63.84-3.37,1.28-5.03l-2.35-.22-.39-1.35c.16-.57,3.29-2.62,3.92-4.03.24-.53-1.09-1.99-.72-3.43.09-.33.78-.31.82-.39.12-.27-.39-.93-.26-1.44.24-.89,1.19-1.9,1.24-2.53.07-.82-1.03-1.16-1.24-1.87-.27-.9.15-2.38-.15-2.87ZM132.17,41.19c.57-4.51-6.36-.7-6.06.69,1.21,1.95,3.57-1.49,4.44-1.48.45,0,.79,1.08,1.63.79ZM56.03,39.84c-5-.75-8.44,5.44-6.96,9.74-2.47.03-3.98-2.31-6.53-1.86l3.01,2.35c1.08.53,1.62,5.94.03,5.1-1.08-1.11-.71-2.69-1.63-3.96-2.26-3.12-4.64.85-2.09,3.95,1.41,1.71,4.01,1.77,5.1,2.83.6.58,1.29,2.5,2.12,3.47,5.76,6.67,13.75,11.48,22.77,8.31,7.81-2.75,14.26-17.61,7.55-24.16-1.48-.67-3.77.98-2.79,2.58-1.63-.6-3.2,1.08-3.98,2.34,1.03,1.77,2.08,2.81,1.65,5.13,3.9,1.59,3.89-5.32,6.55-3.51,2.36,1.6-4.65,6.18-6.55,5.38,1.85,4.61-2.52,10.41-7.48,9.6-2.32-.38-6.16-4.14-9.03-4.54-1.33-.78-1.53-2.71.33-2.2.52.14,1.28,1.17,2.18,1.56,4.81,2.11,10.64,1.37,12.61-3.97-1.24.83-5.89,2.21-6.8.97-.57-1.11-.06-2.22,1.03-2.78,5.13,4.28,7.54-4.37,2.74-4.25-1.14.03-1.91.57-2.89.86-.29.09-1.63.97-1.54-.15.14-1.65,5.1-2.45,6.47-2.16l1.46-3.2c-3.76.1-7.86-.85-11.22-2.55-.87-.44-3.34-2.49-3.55-2.53-.89-.16-2.54,2.29-3.9,1.81.19-1.7,2.48-2.22,1.35-4.14ZM132.17,45.39c.74-6.04-7.57.04-6.53.93,2.93.55,3.82-3.55,6.53-.93ZM127.97,57.04c6.79.95,8.84-12.63.92-10.5-1.26.34-4.78,2.26-3.25,3.74,2.01,1.95,4.32-1.95,6.53-1.63.01,1.33-1.41,1.82-2.06,2.83-.3.47-.35,1.36-.72,2.08-.49.95-2.09,1.41-1.42,3.48ZM84.09,52.85c1.98.52,3.87-2.94,2.36-3.99l-1.89-.2,1.4,1.62-1.79.78-.08,1.79ZM126.1,53.31h-1.85s-4.21,30.29-4.21,30.29h2.34s3.73-30.29,3.73-30.29ZM86.89,72.89c-1.66-5.08-11.85-6.99-11.2,0h11.2ZM71.01,72.9c-1.94.17-3.88,0-5.81,0-.55,0-1.77-.35-1.66.46,1.6.55,3.22.57,4.89.46.54-.03,2.5-.18,2.57-.92ZM83.62,76.62c-1.19.08-2.29-.5-3.48-.49-6.96.08-29.57,2.48-34.29,7.28-.49.5-.92,1.04-.94,1.78.51,2.2,11.16,1.83,13.26,1.67,5.99-.44,14.14-3.02,19.55-5.65.58-.28,7.06-3.51,5.9-4.59ZM41.14,96.2c15.45-5.35,32.82-9.03,49.24-7.45,5.26.51,9.8,3.55,13.52-2.36,3.49-5.53-5.85-8.72-9.91-9.17-5.08-.56-4.83,1.7-8.55,4.26-8.62,5.93-31.91,11.89-41.51,7.5-2.28-1.04-2.09-2.54-3.56-3.9-1.59-1.47-6.4-3.38-8.57-4.02-4.52-1.34-17.49-3.81-17.49,3.72,0,4.63,2.65,1.53,4.69,1.2,4.25-.68,6.58,1.45,7.28,5.5,2.3-.44,5.49,2.59,7.39,1.71.75-.35,1.23-1.48,2.7-2.02,3.48-1.27,4.71,2.19,4.78,5.04ZM14.54,92.93c-3.08,8.66,8.26,7.15,9.3.67.85-5.35-1.99-6.47-6.5-4.39l.94,1.86c.74.1.26-.75,1.02-1.08,2.84-1.26,3,1.17,2.6,3.54-.76,4.51-7.81,4.07-6.28,1.38.07-.13,1.11.06.79-.8l-1.86-1.17ZM95.29,93.4c-14.27-2.18-29.66-.79-43.61,2.82-3.45.9-12.17,3.14-14.06,6-2.4,3.6,1.7,4.85,4.7,5.15,11.21,1.13,26.85-3.19,37.56-6.77,1.2-.4,16.57-5.64,15.42-7.2ZM38.29,93.44c-.86-.58-2.5.54-3,1.35l1.19,3.27c1.97.27,2.98-3.83,1.82-4.61ZM16.87,110.65c-1.16,1.12,4.15,4.06,4.98,4.11.44.03,7.53-3.74,7.88-4.09,1.67-1.67,3.04-7.72,5.11-9.75-.14-3.31-1.9-5.78-5.36-6.11-.05.44,3.52,2.46,1.64,2.79l-5.38-2.32c.63,2.14,3.27,2.54,5.11,3.28l-.19,1.39c-1.92,2.63-4.12-4.69-6.31-2.12.93.43,1.78,2.48,2.33,2.79.85.48,2.12-.08,2.79.95-2.13,4.52-3.75-2.18-6.31-2.94l-3.9,3.01c-.62,1.82,2.53,5.19,3.84,6.51.5.5,3.8,2.34,3.11,2.96-1.74-.14-3.16.75-4.44,1.79-1.56-1.55-2.41-2.74-4.9-2.25ZM76.62,105.52h16.11c1.3,0,5.21.87,6.67,1.27,1.94.52,3.67,1.47,5.47,2.3,9.45-5.69,5.28-12.41-4.17-13.81l-24.07,10.24ZM21.41,107.97c-1.44-1.54-5.72-1.08-3.38.82,1.81,1.47,6.08,2.06,3.38-.82ZM100.84,111.16c-3.58-1.55-7.44-2.6-11.36-2.87-11.3-.77-25.33.65-36.09,4.09-2.4.77-17.37,5.87-9.43,8.72,6.32,2.27,20.76,1.11,27.71.2,10.12-1.34,20-4.58,29.18-8.85v-1.29ZM83.15,132.09c-1.61-1.77-17.24-1.63-20.3-1.4-3.25.24-17.24,2.74-7.34,4.98,6.98,1.58,17.3.96,24.11-1.29.55-.18,4.33-1.41,3.53-2.3ZM85.02,137.22l-18.67,2.56c5.33,2.36,14.23,1.3,18.67-2.56ZM30.88,167.04c-.34,1.62-2.31,5.05-1.66,6.51.18.41,3.53,2.99,3.98,3.11,1.11.3,1.43-1.04,2.35-.57,3.72,6.4,10.74,14.93,19,10.62,9.21-4.8-4.59-12.93-9.66-8.67l-.91-.04-5.89-4.91.53-2.82-7.72-3.24ZM75.12,171.8c-.5-.44-6.2-.96-7.14-2.84-1.04,0-3.14,5.66-2.34,6.95.27.44,3.76,1.74,4.3,1.75.61,0,1.97-.97,3.35-1.03,3.79-.17,3.71,2.51,6.13,4.63,2.29,2,4.15,2.8,7.24,2.55,2.9-.23,10.56-3.28,8.87-6.98-1.78-3.88-6.23-.38-8.91-.03-1.1.14-1.96-.27-2.77-.23-.68.04-1.2.8-2.21.65-.37-.06-5.39-3.27-5.73-3.64-.59-.64-.58-1.62-.77-1.78ZM42.37,170.8l-1.21,1.55,2.55,2.07,1.13-1.49-2.47-2.13Z"/>
  <path class="cls-1" d="M438.87,129.76l-4.88.95c-16.07.78-31.26-.98-46.85-4.53-10.29-2.34-20.24-5.84-30.43-8.53l6.09,2.54c23.98,8.08,48.53,14.85,74.2,13.31l-7.68.95c-25.41.56-50.23-5.88-74.01-14-.26,1.34.36.75,1.02,1.06,9.29,4.3,25.13,8.53,35.29,10.93,15.66,3.7,31.21,5.31,47.24,4.34l-5.35.95c-27.46,1.42-53.9-5.34-79.61-14-.24,1.32.32.77,1.02,1.05,6.18,2.47,13.91,4.81,20.35,6.74,20.15,6.03,40.49,10.1,61.72,9l-8.17.92c-26.18.49-51.69-6.35-76.32-14.44.19.82,1.09,1,1.74,1.29,5.77,2.57,14.54,4.93,20.78,6.76,21.05,6.18,41.67,10.17,63.84,8.74l-5.81.95c-44.77,2.18-81.15-15.45-121.85-29.39-45.27-15.51-97.02-15.84-141.22,3.27,1.02-1.28,3.03-2.03,4.5-2.73,15.14-7.13,33.27-11.56,49.89-13.58,2.84-.34,6.57.03,9.1-1.17-10.61-.1-21.8,1.55-32.23,3.71s-20.4,5.4-30.09,9.58c-1.43-.06-.46-.5.11-.83,2.07-1.21,5.74-2.67,8.07-3.6,17.12-6.87,35.72-10.63,54.15-11.89.35-1.77-1.58-.49-2.57-.47-21.62.48-44.31,6.15-63.98,14.9-1.21.03-1.1-.05-.1-.56,20.39-10.34,43.8-16.02,66.64-17.14l-.69-.93c-22.94,1.25-45.97,5.51-66.78,15.37-1.36.1-.4-.56.08-.86,1.95-1.23,5.11-2.46,7.32-3.41,19.1-8.25,36.47-11.32,57.03-13.44.67-.07,2.81-.22,3.04-.92-15.57.03-31.04,3.19-46.1,6.86l-22.05,7.82c7.23-4.09,15.48-7.24,23.45-9.68,32.43-9.95,67.64-10.62,100.81-3.93,24.49,4.95,46.3,15.54,69.69,23.63,25.48,8.82,52.24,16.88,79.6,14.45Z"/>
  <path class="cls-1" d="M219.93,12.3l-.49,3.7-7.03.3-4.62,24.89,16.68-10.61c3.59-2.78,7.6-5.12,11.09-8.04,2.03-1.7,5.2-3.56,4.91-6.51h-10.27l.47-3.73h29.88l-.49,3.7c-1.87.19-3.93-.19-5.77.07-2.76.39-11.53,8-14.6,10.13-5.08,3.52-10.34,6.83-15.56,10.11l27.08,29.83c3.13,2.49,7.03,5.08,11.21,3.96l-.46,3.73c-7.71-.57-16.46.76-24.04,0-4.91-.49-8.33-3.74-11.43-7.23-5.85-6.59-10.19-14.65-16.19-21.15l-3.35,2.14c-.08,4.47-4.17,18.21-1.69,21.55.2.27,1.17.96,1.37.96h8.64l-.47,3.73h-38.75l.9-3.53c1.55-1.12,6.96,1.42,7.38-1.95,1.31-14.42,6.14-29.89,7.12-44.16.13-1.86.67-8.15-2.09-8.15h-6.77l.47-3.73h36.88Z"/>
  <path class="cls-1" d="M168.58,130.69l-.49,3.7c-.65.63-6.7-1.16-7.34,1.29l-4.3,23.9c.4.32,3.77-1.9,4.44-2.32,7.17-4.39,15.88-10.14,22.38-15.41,1.41-1.14,6.03-4.62,5.89-6.26l-.74-1.17h-9.57l1.17-3.73h29.18l-.49,3.7c-1.6.13-3.23-.12-4.83.08-3.86.47-10.94,7.09-14.61,9.65-5.43,3.79-11.14,7.15-16.46,11.09l26.11,28.85c3.59,3.01,7.16,5.56,12.14,4.89l-.46,3.26c-7.96-.63-17.18.84-24.98,0-5.17-.56-8.8-4.93-11.89-8.64-5.05-6.07-9.47-13.11-14.32-19.37-1.35.25-3.18.93-3.78,2.25-.39,4.01-3.95,18.31-2.02,21.25.49.38,2.71,1.24,3.07,1.24h7.24l-.47,3.26h-38.75l.47-3.26c2.37-.26,6.74.99,7.72-1.85l7.21-44.54-.42-6.91c-2.48-1.76-5.6-1.16-8.44-1.24l1.17-3.73h36.18Z"/>
  <path class="cls-1" d="M248.32,141.08c17.75-1.45,38.72,4.1,33.96,26.45-4.69,22.07-33.2,29.12-52.56,25.4-23.83-4.59-22.8-28.77-6.76-42.21,6.84-5.73,16.52-8.91,25.36-9.64ZM248.78,144.34c-15.37,1.29-21.05,17.99-19.99,31.34,1.57,19.91,24.95,18.49,32.78,3.8,6.64-12.46,7-36.8-12.79-35.14Z"/>
  <path class="cls-1" d="M453.82,50.98l-.47,2.8c-1.73.29-5.85-.79-6.75.95-.59,1.13-1.92,9.22-1.55,10.38.29.93,2.09,1.54,1.09,3.13-.98,1.55-12.33,4.38-14.71,4.89-13.08,2.78-31.82,4.2-42.91-4.71-11.19-8.98-7.28-25.75,2.54-34.21,15.15-13.04,40.28-13.6,59.03-10.26l-1.11,7.5-3.09.2c-1.18-2.52-1.33-3.32-4.06-4.33-8.91-3.3-21.99-.99-29.97,3.89-18.98,11.63-16.54,40.91,8.59,40.28,1.34-.03,7.15-.74,7.75-1.7.54-.86,1.78-9.64,1.83-11.13.2-5.75-2.84-4.76-7.47-4.88l.47-2.79h30.81Z"/>
  <path class="cls-1" d="M335.01,23.95l33.15,32.16c1.06.21.59-.45.76-1.09,2.15-8.37,3.35-18.79,2.97-27.34-.13-.21-1.27-.93-1.4-.93h-6.77l.47-2.8h21.47l-.53,2.73-5.24.13-.81,1.05c-3.62,15.05-5.54,30.55-8.94,45.63-1.16,5.15-7.37-2.82-8.75-4.1-11.76-10.89-22.88-22.52-34.31-33.79-.67-.01-2.63,10.68-2.89,12.02-1,5.16-2.54,12.07-2.89,17.16-.52,7.68,2.37,5.91,8.81,6.23l-.7,2.8h-21.71l.52-2.74c1.6-.33,5.32.65,6.16-1.11l8.18-36.02c-.96-4.73-5.84-8.15-10.66-7.21v-2.8h23.11Z"/>
  <path class="cls-1" d="M362.32,142.34l-.52,2.74c-2.38.37-7.62-.92-8.61,1.9l-5.75,35.74c.08,2.92-1.16,5.84,2.5,6.23,4.75.51,20.79-.22,24.29-3.26,1.04-.9,2.47-4.56,4.48-2.13.76.92-1.79,7.25-2.62,8.65h-51.58l.44-2.59c1.34-.94,5.28,1.04,5.88-1.58,1.09-11.6,5.04-24.21,5.81-35.68.48-7.06.01-6.89-7-7.22l.7-2.8h31.98Z"/>
  <path class="cls-1" d="M322.64,142.34l-.52,2.74c-2.25.2-5.81-.59-6.27,2.36-.97,11.88-5.13,24.88-5.8,36.62-.07,1.26-.34,5.36,1.63,5.36h6.77l-.47,2.8h-31.28l.44-2.59c1.29-.91,5.21.94,5.99-1.48l5.7-34.86c-.26-1.78.51-5.27-.22-6.75s-6.13-1.4-7.71-1.4l.47-2.79h31.28Z"/>
  <path class="cls-1" d="M303.03,23.95l-.49,2.77-5.28.09-.81,1.05-6.01,37.34c-1.16,6.64,3.46,5.78,8.39,5.83l-.47,2.79h-31.28l.44-2.59c1.27-.48,5.18.22,5.79-1.23l5.9-35.57c.6-7.96.18-8.07-7.93-7.69l.47-2.79h31.28Z"/>
  <path class="cls-1" d="M387.42,182.98c7.32-.82,7.51,10.96-.56,9.68-5.23-.83-5.2-9.03.56-9.68ZM388.95,188.05l1.61,2.76c5.26-6.42-6.27-10.29-6.63-2.95-.17,3.45,4.07,5.39,6.4,2.97l-3.03-2.34c-.71-.01.57,2.94-1.17,2.33v-5.59s4,.43,4,.43l.16,1.63-1.34.77Z"/>
  <path class="cls-1" d="M62.62,50.98c.07-1.54.11-3.12-1.17-4.19-.99-.03-.72,3.85-.68,4.63l1.85.24.46,1.64-7.93-.94c1.52-2.27.59-6.82,4.47-7.44,3.25-.53,5.4,3.91,3,6.05Z"/>
</svg>