<?xml version="1.0" encoding="UTF-8"?>
<svg id="Capa_1" data-name="Capa 1" xmlns="http://www.w3.org/2000/svg" viewBox="0 0 48.71 27.18">
  <defs>
    <style>
      .cls-1 {
        fill: #fff;
      }
    </style>
  </defs>
  <path class="cls-1" d="M9.71,22.81c-1.4,0-2.74-.2-4.02-.6s-2.3-.92-3.05-1.55l1.15-2.59c.72.56,1.6,1.03,2.66,1.41s2.14.56,3.25.56c.94,0,1.7-.1,2.28-.31s1.01-.48,1.28-.83c.27-.35.41-.75.41-1.19,0-.55-.2-.99-.59-1.32-.39-.33-.9-.6-1.52-.79-.62-.2-1.31-.38-2.07-.55-.76-.17-1.52-.37-2.28-.6-.76-.23-1.45-.53-2.07-.9-.62-.37-1.13-.86-1.52-1.47-.39-.61-.59-1.4-.59-2.36s.26-1.86.78-2.68c.52-.81,1.31-1.46,2.38-1.95,1.07-.49,2.42-.73,4.06-.73,1.08,0,2.14.14,3.2.41,1.06.27,1.98.67,2.77,1.18l-1.05,2.59c-.8-.48-1.63-.83-2.48-1.06-.85-.23-1.67-.35-2.46-.35-.92,0-1.67.11-2.24.33-.57.22-.99.51-1.25.87-.26.36-.4.77-.4,1.23,0,.55.19.99.58,1.32.38.33.89.59,1.51.78.62.19,1.32.37,2.09.55.77.18,1.53.38,2.29.6.76.22,1.45.51,2.07.87.62.36,1.13.85,1.51,1.46.38.61.58,1.39.58,2.33s-.26,1.84-.78,2.65c-.52.81-1.32,1.46-2.39,1.95-1.08.49-2.43.73-4.07.73Z"/>
  <path class="cls-1" d="M23.7,22.55l-5.94-17.92h3.46l5.3,16.21h-1.72l5.51-16.21h3.07l5.35,16.21h-1.66l5.43-16.21h3.18l-5.94,17.92h-3.53l-4.89-14.62h.92l-4.97,14.62h-3.56Z"/>
</svg>