<?xml version="1.0" encoding="UTF-8"?>
<svg xmlns="http://www.w3.org/2000/svg" viewBox="0 0 535.59 269.65">
  <defs>
    <style>
      .cls-1 {
        fill: #3b67ae;
      }

      .cls-2 {
        fill: #fff;
      }

      .cls-3 {
        opacity: .5;
      }

      .cls-3, .cls-4, .cls-5 {
        fill: #b6c4cb;
        mix-blend-mode: multiply;
      }

      .cls-6 {
        isolation: isolate;
      }

      .cls-7 {
        fill: #e7f0f5;
      }

      .cls-4 {
        opacity: .3;
      }

      .cls-8 {
        fill: #f8b238;
      }
    </style>
  </defs>
  <g class="cls-6">
    <g id="Capa_1" data-name="Capa 1">
      <g>
        <g>
          <path class="cls-1" d="M137.52,139.18c4.08-13.43,9.61-25.98,19.88-36.11,9.86-9.73,21.31-16.42,34.81-19.31,4.26-.91,6.19-2.51,7.11-7.03,7.07-34.53,34.64-57.87,68.63-58.56,34.68-.7,62.89,21.22,71.63,55.79.9,3.56,1.52,6.19,6.33,6.85,36.86,5.05,58.75,26.6,65.04,63.41.2,1.16.46,2.31.7,3.47,1.86,12.47,1.9,12.6-9.4,16.09-20.03,6.18-40.6,8.05-61.45,7.23-2.55-.25-4.76-1.22-5.09-3.99-.35-2.89,2.1-3.91,4.18-5.07,4.61-2.56,9.78-3.43,14.76-4.88,6.77-1.98,7.58-3.78,3.86-9.35-9.13-13.69-14.93-28.82-19.55-44.48-1.89-6.4-3.16-6.98-8.77-3.56-7.46,4.55-15.2,8.6-22.91,12.69-4.17,2.21-8.51,3.02-12.15-1.3-1.2-2.4.26-4.59.59-6.86.94-6.62-.66-8.64-7.02-7.52-11.69,2.07-23.44,1.98-35.23,2.08-5.22.05-10.28-1.03-15.43-1.32-3.33-.57-6.09,1.59-9.22,1.96-6.27-1.03-12.66-.7-18.93-2.12-6.21-1.4-8.01.37-6.79,6.58,1.51,7.68,2.11,15.37,1.64,23.15-.25,4.09-.94,8.04-5.49,9.78-18.68-.27-37.22.69-55.4,5.47-2.54.67-5.83,1.2-6.32-3.1Z"/>
          <rect class="cls-1" x="293.8" y="91.15" width="78.57" height="68.25"/>
          <rect class="cls-1" x="200.64" y="85.9" width="131.74" height="50.59"/>
          <path class="cls-1" d="M337.05,170.11c-4.12-.48-8.24-.97-12.37-1.45-5.27-1.1-10.54-2.2-15.81-3.31-6.04-1.87-12.08-3.75-18.12-5.62-5.05-1.92-10.1-3.84-15.15-5.76l-25.05-9.26c-4.92-1.15-9.83-2.29-14.75-3.44-4.8-1.3-10.24-2.5-16.27-3.37-6.96-1.01-13.32-1.38-18.89-1.41,33.68-3.23,67.35-6.47,101.03-9.7,15.1,10.6,30.2,21.21,45.3,31.81l-9.92,11.51Z"/>
          <g>
            <path class="cls-7" d="M208.57,152.01c.41.99,2.2-.39,3.01-1.07,1.85-.64,3.86-.92,5.75-1.04,4.08-.25,8.18.14,12.21.7,8.38,1.15,16.66,2.87,25.07,3.78,8.54.92,17.24.63,25.82.73,8.37.09,16.61-.58,24.9-1.58,2.4-.29,4.77-.44,7.12-.24,0,0,0-.02,0-.02.75.11,1.5.25,2.25.41.61.13,1.17.38,1.74.62-.53-.09-1.07-.16-1.61-.22.88.51,1.76,1.01,2.67,1.44.82.39,1.75.78,2.68.68,1.51-.18.82-2.64.51-3.44-.55-1.4-1.56-2.59-2.18-3.96-.59-1.31-.76-2.68-.65-4.1.32-4.04,1.2-8.14,1.98-12.12,1.63-8.29,1.97-16.72,3.15-25.07.49-3.43.36-7.3,1.99-10.43,1.06-2.05,2.74-3.51,3.98-5.41-.07-.07-.1-.18,0-.19,0-.16-.02-.33-.02-.49-.17-.11-.42-.18-.7-.23-.05,0-.11,0-.16,0-.27,0-.54,0-.81.01-.48.02-.95,0-1.43-.05-1.78-.19-3.42-.76-5.06-1.44-1.74-.72-3.43-1.46-5.26-1.95-1.96-.53-3.97-.82-5.98-1.06-8.37-1.01-16.83-1.5-25.24-2.07-8.6-.59-17.23-1.02-25.85-1.14-8.25-.12-16.83-.06-24.96,1.54-.41-.07-.88.09-1.26.18-.07.02-.09.05-.09.1-5.95,1.33-12.04,3.72-18.16,2.09-.82-.22-1.67-.48-2.53-.46-1.6.02-.04,2.25.36,2.8.73,1.01,1.35,1.93,1.75,3.08.18-.56.32-1.13.38-1.73.25,1.39-.06,2.83-.47,4.19-.42,1.42-.78,2.81-.89,4.3-.06.79-.08,1.58-.08,2.37-.24,2.1-.35,4.21-.37,6.33-.04,6.09.26,12.18.44,18.26.16,5.26,1,10.64.13,15.87-.42,2.54-1.54,4.79-2.79,7.01-.28.49-.53.99-.76,1.5-.01.03-.02.06-.03.08-.32.41-.76,1.02-.58,1.46Z"/>
            <path class="cls-4" d="M209.15,150.55s.02-.06.03-.08c.23-.51.48-1.01.76-1.5,1.25-2.22,2.37-4.46,2.79-7.01.87-5.23.03-10.61-.13-15.87-.18-6.08-.48-12.18-.44-18.26.01-2.11.12-4.23.37-6.33,0-.79.03-1.58.08-2.37.11-1.48.46-2.88.89-4.3.41-1.36.72-2.8.47-4.19-.06.6-.2,1.17-.38,1.73-.41-1.15-1.02-2.08-1.75-3.08-.4-.55-1.96-2.77-.36-2.8.86-.01,1.71.24,2.53.46,6.12,1.63,12.21-.76,18.16-2.09,0-.05.03-.09.09-.1.38-.09.85-.25,1.26-.18,8.13-1.6,16.71-1.66,24.96-1.54,8.62.12,17.25.55,25.85,1.14,8.41.57,16.87,1.06,25.24,2.07,2.01.24,4.03.54,5.98,1.06,1.83.49,3.51,1.23,5.26,1.95,1.64.68,3.28,1.25,5.06,1.44.48.05.95.07,1.43.05.27-.01.54,0,.81-.01.05,0,.11,0,.16,0,.28.05.53.12.7.23,0,.16.02.33.02.49-.11.01-.08.12,0,.19-1.23,1.9-2.92,3.36-3.98,5.41-1.62,3.13-1.5,7-1.99,10.43-1.18,8.35-1.52,16.78-3.15,25.07-.78,3.97-1.66,8.08-1.98,12.12-.11,1.42.06,2.79.65,4.1.62,1.37,1.62,2.56,2.18,3.96.31.79,1,3.26-.51,3.44-.93.11-1.86-.29-2.68-.68-.92-.44-1.8-.94-2.67-1.44.54.05,1.07.13,1.61.22-.57-.24-1.13-.49-1.74-.62-.75-.16-1.5-.3-2.25-.41,0,0,0,.01,0,.02-2.35-.2-4.72-.05-7.12.24-8.29,1-16.54,1.67-24.9,1.58-8.58-.09-17.28.19-25.82-.73-8.42-.91-16.7-2.63-25.07-3.78-4.03-.55-8.14-.94-12.21-.7-1.89.11-3.9.4-5.75,1.04-.82.67-2.6,2.06-3.01,1.07-.18-.44.26-1.05.58-1.46ZM216.12,119.65c1.12,5.02,4.67,11.1,1.98,16.19-1.52,2.88-3.22,6.91,1.38,7.75,2.61.48,5.38-.58,7.94-.96,4.03-.6,8.24.92,12.13,1.82,8.95,2.07,18,3.92,27.18,4.59,4.9.36,9.84.38,14.74-.13,3.45-.36,9.57-.52,12.1-3.37,4.68-5.27-10.16-8.51-12.9-9.02-7.58-1.42-15.07-2.27-22.78-2.06-4.7.12-9.63.01-14.08-1.72-4.66-1.81-7.69-5.48-11.17-8.88-2.64-2.56-6.32-4.03-9.1-6.46-4.38-3.83,2.13-4.53,4.93-4.66,5.09-.25,10.21.03,15.27-.68,4.9-.68,9.6-2.33,14.49-3.08,13.31-2.03,30.67-3.28,40.5,7.97,2.62,3,5.8,8.21,9.51,9.89,6.19,2.8,7.11-6.62,7.15-10.39.04-4.04-.72-8.06-.4-12.1.36-4.53,2.61-6.35,4.65-10.08,2.75-5.01-20.96-7.43-24.1-7.77-5.6-.61-11.21-1.03-16.82-1.55-6.75-.63-13.51-1.39-20.3-1.33-9.99.09-21,1.03-30.58,3.96-2.49.76-4.99,1.34-7.62,1.12-1.03-.09-3.14-1.01-4.07-.55-2.14,1.08-.26,1.96.37,2.95,2.79,4.37.48,9.2-.66,13.69-1.25,4.92-.83,9.97.27,14.86Z"/>
            <path class="cls-3" d="M208.27,151.22s.43-.61.44-.64c.23-.51.95-1.13,1.22-1.62,1.25-2.22,2.29-4.86,2.71-7.4.2-1.21.08-3.98.13-5.21.89,2.92,2.03,5.84.76,7.87-.82,1.32-1.36,2.91,1.65,2.86,4.47-.08,8.99-1.43,13.46-1.02,4.72.44,9.4,1.21,14.06,2.1,8.79,1.68,17.54,3.33,26.45,4.2,10.17,1,21.47.59,31.59-.93,2.33-.35,5.89-1.02,4.79-4.22-1.12-3.27-5.58-5.52-8.35-7.09-3.43-1.95-6.99-3.86-10.59-5.48-6.8-3.08-13.94-4.18-21.15-5.85-7.4-1.72-13.9-5.9-20.83-8.86-5.1-2.18-10.37-3.92-15.72-5.4,6.62.2,13.22.83,19.75,1.97,7.45,1.3,14.8,3.13,21.95,5.61,6.84,2.38,19.31,6.74,25.11,11.19,5.1,3.92,16.26,14.99,20.33,8.15,2.63-4.41,2.17-11.35,3.04-16.28,1.24-7,2.78-12.6,1.42-19.63-.45-2.31-1.24-5.31.14-7.46,1.35-2.11,3.39-2.95,5.59-3.84.7-.29,1.53-.66,2.31-1.1-1.12,1.47-2.41,2.76-3.29,4.44-1.62,3.13-1.5,7-1.99,10.44-1.18,8.35-1.52,16.78-3.15,25.07-.78,3.97-1.66,8.08-1.98,12.12-.11,1.42.06,2.79.65,4.1.62,1.37,1.62,2.56,2.18,3.96.31.79,1,3.26-.51,3.44-.93.11-1.86-.29-2.68-.68-.92-.44-1.8-.94-2.67-1.44.54.05,1.07.13,1.61.22-.57-.24-1.13-.49-1.74-.62-.75-.16-1.5-.3-2.25-.41,0,0,0,.01,0,.02-2.35-.2-4.72-.05-7.12.24-8.29,1-16.54,1.67-24.9,1.58-8.58-.09-17.28.19-25.82-.73-8.42-.91-16.7-2.63-25.07-3.78-4.04-.55-8.14-.94-12.21-.7-1.89.11-3.9.4-5.75,1.04-.82.67-1.8,1.15-2.87,1.22-.43.03-1.08-.95-.7-1.46Z"/>
            <path class="cls-5" d="M226.59,113.51c13.97.24,27.78,2.85,40.99,7.36,6.86,2.35,13.55,5.26,19.94,8.69,3,1.61,5.92,3.39,8.74,5.31,1.21.82,2.32,1.68,3.38,2.69,1.31,1.24,2.57,2.61,4.22,3.4.14.07.19.36-.02.26-2.42-1.06-4.12-3.26-6.2-4.81-2.9-2.15-6.13-3.94-9.31-5.64-6.24-3.34-12.78-6.14-19.45-8.5-13.53-4.78-27.72-7.26-42.02-8.17-.28-.02-.66-.61-.26-.61Z"/>
            <path class="cls-3" d="M262.56,109.68c4.35-.29,8.65-.64,13-.2,3.27.33,6.53.83,9.72,1.66,6.25,1.63,12.41,5.12,15.54,10.97.02.04-.04.07-.06.04-1.99-2.76-4.32-5.03-7.23-6.8-2.71-1.66-5.75-2.72-8.8-3.55-3.12-.84-6.31-1.34-9.51-1.72-4.2-.5-8.43-.13-12.65-.13-.17,0-.17-.25,0-.27Z"/>
            <path class="cls-2" d="M227.15,91.01c2.63-1.52,6.16-2.1,9.11-2.77,3.21-.73,6.48-1.22,9.76-1.5,7.51-.64,15.09-.29,22.6.1,13.92.73,28.83.33,41.92,5.72.44.18.29.87-.2.73-13.14-3.53-27.24-3.11-40.74-3.73-7.21-.33-14.42-.55-21.62-.08-3.5.23-6.96.76-10.44,1.2-3.29.41-6.85,1.25-10.15,1.17-.44-.01-.63-.61-.23-.84Z"/>
          </g>
          <g>
            <path class="cls-7" d="M279.45,170.09c.6.7,1.7-.91,2.19-1.68,1.35-1.02,2.92-1.79,4.44-2.38,3.28-1.29,6.75-2.06,10.21-2.68,7.18-1.29,14.43-2.07,21.58-3.57,7.26-1.52,14.31-4.07,21.38-6.27,6.89-2.15,13.48-4.89,20.02-7.92,1.89-.88,3.8-1.63,5.78-2.09,0,0,0-.01-.01-.02.65-.11,1.3-.2,1.96-.26.54-.06,1.06,0,1.59.05-.46.07-.92.15-1.38.25.85.18,1.71.36,2.58.47.78.1,1.65.18,2.38-.16,1.19-.55-.03-2.39-.5-2.96-.83-1-1.97-1.71-2.84-2.67-.83-.92-1.34-1.99-1.62-3.19-.81-3.4-1.18-7-1.6-10.47-.86-7.24-2.84-14.25-4.08-21.41-.51-2.95-1.64-6.09-1.15-9.09.32-1.96,1.32-3.61,1.82-5.5-.08-.04-.13-.12-.05-.16-.05-.13-.1-.26-.15-.4-.17-.04-.39-.04-.63,0-.04.02-.09.03-.13.05-.22.08-.44.14-.66.22-.39.15-.78.25-1.19.34-1.51.32-3.01.28-4.54.16-1.62-.13-3.2-.28-4.83-.2-1.75.09-3.48.38-5.19.72-7.14,1.4-14.21,3.25-21.27,5.01-7.22,1.81-14.41,3.74-21.52,5.94-6.8,2.1-13.83,4.43-20.07,7.9-.35.05-.7.31-.99.48-.05.03-.06.07-.05.11-4.53,2.67-8.89,6.25-14.35,6.55-.73.04-1.5.05-2.2.29-1.31.45.56,1.86,1.04,2.2.87.63,1.62,1.23,2.26,2.06,0-.51-.04-1.01-.15-1.52.58,1.07.7,2.34.73,3.56.03,1.28.11,2.52.42,3.76.16.66.35,1.32.56,1.96.36,1.79.83,3.55,1.38,5.29,1.58,5.01,3.45,9.93,5.22,14.87,1.53,4.27,3.65,8.47,4.33,12.99.33,2.2.01,4.34-.43,6.49-.1.48-.17.95-.22,1.43,0,.03,0,.05,0,.08-.15.42-.35,1.04-.09,1.35Z"/>
            <path class="cls-4" d="M279.53,168.74s0-.05,0-.08c.05-.48.13-.96.22-1.43.44-2.16.76-4.29.43-6.49-.68-4.52-2.8-8.72-4.33-12.99-1.77-4.94-3.64-9.86-5.22-14.87-.55-1.74-1.02-3.5-1.38-5.29-.21-.65-.4-1.3-.56-1.96-.31-1.25-.39-2.49-.42-3.76-.03-1.22-.15-2.49-.73-3.56.11.51.15,1.02.15,1.52-.64-.84-1.39-1.43-2.26-2.06-.47-.34-2.35-1.75-1.04-2.2.7-.24,1.47-.25,2.2-.29,5.46-.29,9.82-3.87,14.35-6.55-.01-.04,0-.08.05-.11.29-.17.63-.43.99-.48,6.24-3.48,13.27-5.8,20.07-7.9,7.11-2.19,14.3-4.13,21.52-5.94,7.05-1.77,14.13-3.62,21.27-5.01,1.71-.34,3.45-.63,5.19-.72,1.63-.08,3.21.07,4.83.2,1.53.12,3.03.15,4.54-.16.41-.09.8-.19,1.19-.34.22-.08.44-.15.66-.22.04-.02.09-.03.13-.05.24-.03.47-.04.63,0,.05.13.1.26.15.4-.09.04-.03.12.05.16-.5,1.89-1.5,3.54-1.82,5.5-.5,3,.63,6.14,1.15,9.09,1.25,7.17,3.22,14.18,4.08,21.41.41,3.47.79,7.07,1.6,10.47.28,1.2.79,2.27,1.62,3.19.87.96,2.01,1.67,2.84,2.67.47.57,1.69,2.41.5,2.96-.73.34-1.6.26-2.38.16-.87-.11-1.72-.29-2.58-.47.46-.1.91-.18,1.38-.25-.53-.05-1.06-.1-1.59-.05-.65.07-1.31.15-1.96.26,0,0,0,.01.01.02-1.98.46-3.89,1.22-5.78,2.09-6.54,3.03-13.13,5.77-20.02,7.92-7.07,2.21-14.13,4.76-21.38,6.27-7.15,1.49-14.4,2.28-21.58,3.57-3.46.62-6.93,1.39-10.21,2.68-1.52.6-3.09,1.36-4.44,2.38-.49.77-1.59,2.38-2.19,1.68-.27-.31-.07-.93.09-1.35ZM277.04,141.53c2.26,3.82,6.79,7.87,5.93,12.76-.48,2.77-.81,6.53,3.2,6,2.27-.3,4.26-1.91,6.26-2.9,3.15-1.56,7.01-1.44,10.44-1.73,7.9-.68,15.81-1.57,23.52-3.46,4.12-1.01,8.18-2.31,12.06-4.03,2.74-1.22,7.71-2.98,9.03-5.98,2.44-5.57-10.6-4.28-12.98-3.97-6.6.85-12.97,2.15-19.24,4.36-3.83,1.35-7.9,2.57-12.01,2.34-4.31-.25-7.77-2.46-11.53-4.31-2.85-1.4-6.26-1.63-9.19-2.88-4.61-1.97.54-4.28,2.81-5.14,4.11-1.56,8.39-2.69,12.35-4.62,3.84-1.86,7.26-4.47,11.08-6.38,10.38-5.2,24.3-10.85,35.35-4.23,2.95,1.76,6.95,5.2,10.44,5.59,5.82.65,4.07-7.33,3.1-10.43-1.04-3.33-2.74-6.42-3.55-9.82-.91-3.81.45-5.91,1.14-9.51.92-4.84-19.18-.52-21.85.03-4.76.99-9.47,2.14-14.21,3.2-5.71,1.27-11.45,2.45-17.01,4.31-8.18,2.73-16.96,6.43-24.04,11.38-1.84,1.29-3.74,2.42-5.96,2.94-.86.2-2.85,0-3.48.63-1.47,1.46.31,1.67,1.09,2.32,3.45,2.85,2.84,7.42,3.1,11.41.28,4.37,1.97,8.4,4.17,12.13Z"/>
            <path class="cls-3" d="M278.99,169.52s.19-.61.2-.64c.05-.48.48-1.18.57-1.65.44-2.16.59-4.59.26-6.79-.16-1.05-1-3.29-1.28-4.31,1.51,2.16,3.22,4.25,2.72,6.26-.33,1.3-.34,2.75,2.12,1.91,3.65-1.26,6.99-3.56,10.78-4.41,3.99-.9,8.04-1.51,12.1-2.02,7.66-.96,15.28-1.94,22.82-3.59,8.62-1.88,17.78-5.23,25.68-9.17,1.82-.91,4.56-2.4,2.81-4.74-1.79-2.39-6.05-3.04-8.74-3.6-3.34-.69-6.76-1.31-10.15-1.68-6.4-.71-12.55.28-18.91.82-6.53.56-12.98-1.14-19.45-1.73-4.77-.43-9.55-.45-14.33-.25,5.48-1.6,11.07-2.84,16.73-3.64,6.46-.91,12.98-1.37,19.5-1.23,6.25.13,17.64.39,23.58,2.51,5.23,1.86,17.33,7.97,18.85,1.28.98-4.32-1.24-9.89-1.83-14.17-.84-6.08-1.07-11.08-4.06-16.49-.98-1.77-2.43-4.02-1.87-6.16.55-2.09,2-3.32,3.56-4.64.5-.42,1.08-.94,1.61-1.52-.53,1.5-1.25,2.91-1.51,4.52-.5,3,.63,6.14,1.15,9.09,1.25,7.17,3.22,14.18,4.08,21.41.41,3.47.79,7.07,1.6,10.47.28,1.2.79,2.27,1.62,3.19.87.96,2.01,1.67,2.84,2.67.47.57,1.69,2.41.5,2.96-.73.34-1.6.26-2.38.16-.87-.11-1.72-.29-2.58-.47.46-.1.91-.18,1.38-.25-.53-.05-1.06-.1-1.59-.05-.65.07-1.31.15-1.96.26,0,0,0,.01.01.02-1.98.46-3.89,1.22-5.78,2.09-6.54,3.03-13.13,5.77-20.02,7.92-7.07,2.21-14.13,4.76-21.38,6.27-7.15,1.49-14.4,2.28-21.58,3.57-3.46.62-6.93,1.39-10.21,2.68-1.52.6-3.09,1.36-4.44,2.38-.49.77-1.17,1.42-2.03,1.77-.34.14-1.14-.49-.96-1.01Z"/>
            <path class="cls-5" d="M284,133.71c11.53-3.52,23.56-5.05,35.6-4.86,6.26.1,12.52.71,18.68,1.83,2.89.52,5.76,1.21,8.58,2.04,1.21.35,2.35.76,3.49,1.3,1.4.67,2.8,1.46,4.36,1.67.13.02.25.24.06.22-2.27-.23-4.25-1.58-6.37-2.29-2.95-.99-6.08-1.6-9.14-2.15-6.01-1.08-12.12-1.64-18.22-1.8-12.38-.32-24.68,1.42-36.66,4.48-.23.06-.7-.33-.38-.43Z"/>
            <path class="cls-3" d="M312.49,120.99c3.49-1.4,6.93-2.82,10.62-3.62,2.77-.6,5.58-1.06,8.41-1.23,5.56-.33,11.54.9,15.67,4.87.03.03,0,.07-.04.05-2.37-1.74-4.88-2.98-7.74-3.66-2.67-.64-5.44-.71-8.17-.57-2.78.14-5.54.58-8.27,1.12-3.58.71-6.95,2.13-10.41,3.26-.14.05-.21-.16-.07-.22Z"/>
            <path class="cls-2" d="M278.47,115.09c1.76-1.95,4.49-3.36,6.74-4.69,2.44-1.45,4.99-2.73,7.61-3.83,5.99-2.52,12.3-4.25,18.57-5.93,11.62-3.11,23.75-7.4,35.93-6.46.41.03.46.63.03.66-11.72.6-23.18,4.69-34.43,7.78-6,1.65-11.98,3.38-17.77,5.69-2.81,1.12-5.51,2.48-8.25,3.76-2.59,1.21-5.29,2.85-8.02,3.66-.37.11-.68-.34-.41-.63Z"/>
          </g>
          <path class="cls-8" d="M430.15,151.64c-10.08,8.31-21.6,14.02-33.88,18.19-36.78,12.48-74,11.75-111.13,2.25-28.38-7.26-56.42-15.84-85.67-19.31-28.77-3.42-57.45-4.44-86.03,1.44-2.05.42-4.03,1.17-6.46-.75,8.32-5.32,18.01-6.76,26.24-11.4,12.18-7.06,25.95-7.78,39.37-9.23,11.67-1.26,23.49-1.2,35.29-.38,23.65,1.64,45.98,8.07,67.72,17.12,25.5,10.62,51.9,17.38,79.73,16.88,19.62-.36,38.76-3.83,57.13-10.96,4.11-1.6,8.85-1.48,12.21-5.34,1.36-1.56,4.02-.5,5.47,1.5Z"/>
        </g>
        <g>
          <path class="cls-2" d="M26.33,251.49c-2.98,0-5.83-.43-8.55-1.28s-4.88-1.95-6.48-3.3l2.45-5.5c1.52,1.2,3.41,2.2,5.66,3,2.25.8,4.56,1.2,6.92,1.2,2,0,3.61-.22,4.85-.65s2.14-1.02,2.72-1.77c.58-.74.87-1.59.87-2.53,0-1.16-.42-2.1-1.25-2.8-.84-.71-1.92-1.27-3.24-1.69-1.33-.42-2.8-.81-4.41-1.17-1.62-.36-3.23-.79-4.85-1.28-1.62-.49-3.09-1.13-4.41-1.91-1.33-.78-2.41-1.82-3.24-3.13-.83-1.31-1.25-2.98-1.25-5.01s.55-3.97,1.66-5.69c1.11-1.73,2.8-3.11,5.07-4.14,2.27-1.04,5.15-1.55,8.63-1.55,2.29,0,4.56.29,6.81.87,2.25.58,4.21,1.42,5.88,2.51l-2.23,5.5c-1.71-1.02-3.47-1.77-5.28-2.26-1.82-.49-3.56-.73-5.23-.73-1.96,0-3.55.24-4.77.71-1.22.47-2.11,1.09-2.67,1.85-.56.76-.84,1.63-.84,2.61,0,1.16.41,2.1,1.23,2.81.82.71,1.89,1.26,3.21,1.66,1.32.4,2.8.79,4.44,1.17,1.63.38,3.26.81,4.88,1.28,1.62.47,3.09,1.09,4.41,1.85,1.33.76,2.4,1.8,3.21,3.11.82,1.31,1.23,2.96,1.23,4.96s-.55,3.91-1.66,5.64c-1.11,1.73-2.8,3.11-5.09,4.14-2.29,1.03-5.17,1.55-8.66,1.55Z"/>
          <path class="cls-2" d="M66.64,251.49c-2.98,0-5.72-.49-8.23-1.47-2.51-.98-4.68-2.35-6.54-4.11s-3.29-3.83-4.3-6.21c-1.02-2.38-1.53-4.98-1.53-7.82s.51-5.44,1.53-7.82c1.02-2.38,2.45-4.45,4.3-6.21,1.85-1.76,4.03-3.13,6.54-4.11,2.51-.98,5.23-1.47,8.17-1.47s5.71.49,8.2,1.47c2.49.98,4.66,2.35,6.51,4.11,1.85,1.76,3.29,3.83,4.3,6.21,1.02,2.38,1.52,4.98,1.52,7.82s-.51,5.45-1.52,7.84c-1.02,2.4-2.45,4.46-4.3,6.21-1.85,1.74-4.02,3.11-6.51,4.09-2.49.98-5.2,1.47-8.14,1.47ZM66.58,245.28c1.92,0,3.7-.33,5.34-.98s3.05-1.59,4.25-2.8c1.2-1.22,2.13-2.63,2.8-4.25.67-1.61,1.01-3.4,1.01-5.36s-.34-3.75-1.01-5.37c-.67-1.61-1.61-3.03-2.8-4.25-1.2-1.22-2.61-2.15-4.25-2.8-1.63-.65-3.41-.98-5.34-.98s-3.7.33-5.31.98c-1.62.65-3.03,1.59-4.25,2.8-1.22,1.22-2.16,2.63-2.83,4.25-.67,1.62-1.01,3.4-1.01,5.37s.34,3.7,1.01,5.34c.67,1.63,1.61,3.06,2.8,4.28,1.2,1.22,2.62,2.15,4.25,2.8,1.63.65,3.41.98,5.34.98Z"/>
          <path class="cls-2" d="M94.63,250.95v-38.13h5.83l16.67,27.83h-3.05l16.4-27.83h5.83l.05,38.13h-6.7l-.05-27.62h1.42l-13.94,23.26h-3.16l-14.16-23.26h1.63v27.62h-6.76Z"/>
          <path class="cls-2" d="M146.65,250.95v-38.13h5.83l16.67,27.83h-3.05l16.4-27.83h5.83l.05,38.13h-6.7l-.05-27.62h1.42l-13.94,23.26h-3.16l-14.16-23.26h1.63v27.62h-6.76Z"/>
          <path class="cls-2" d="M198.67,250.95v-38.13h7.08v38.13h-7.08Z"/>
          <path class="cls-2" d="M223.13,245.01h21.52v5.94h-28.6v-38.13h27.84v5.94h-20.75v26.25ZM222.58,228.67h18.96v5.83h-18.96v-5.83Z"/>
          <path class="cls-2" d="M252.54,250.95v-38.13h15.69c3.38,0,6.27.54,8.69,1.63,2.41,1.09,4.28,2.65,5.58,4.68,1.31,2.03,1.96,4.45,1.96,7.24s-.65,5.2-1.96,7.22c-1.31,2.02-3.17,3.56-5.58,4.63-2.42,1.07-5.31,1.61-8.69,1.61h-11.77l3.16-3.21v14.33h-7.08ZM259.62,237.39l-3.16-3.38h11.44c3.12,0,5.47-.67,7.05-2.01,1.58-1.34,2.37-3.21,2.37-5.61s-.79-4.3-2.37-5.61c-1.58-1.31-3.93-1.96-7.05-1.96h-11.44l3.16-3.49v22.06ZM277.49,250.95l-9.64-13.84h7.57l9.7,13.84h-7.63Z"/>
          <path class="cls-2" d="M316.38,250.95l-12.64-38.13h7.35l11.28,34.48h-3.65l11.71-34.48h6.54l11.39,34.48h-3.54l11.55-34.48h6.76l-12.64,38.13h-7.52l-10.4-31.1h1.96l-10.57,31.1h-7.57Z"/>
          <path class="cls-2" d="M386.38,251.49c-2.98,0-5.72-.49-8.23-1.47-2.51-.98-4.68-2.35-6.54-4.11-1.85-1.76-3.29-3.83-4.3-6.21-1.02-2.38-1.53-4.98-1.53-7.82s.51-5.44,1.53-7.82c1.02-2.38,2.45-4.45,4.3-6.21,1.85-1.76,4.03-3.13,6.54-4.11,2.51-.98,5.23-1.47,8.17-1.47s5.71.49,8.2,1.47c2.49.98,4.66,2.35,6.51,4.11,1.85,1.76,3.29,3.83,4.3,6.21,1.02,2.38,1.52,4.98,1.52,7.82s-.51,5.45-1.52,7.84c-1.02,2.4-2.45,4.46-4.3,6.21-1.85,1.74-4.02,3.11-6.51,4.09-2.49.98-5.2,1.47-8.14,1.47ZM386.32,245.28c1.92,0,3.7-.33,5.34-.98,1.63-.65,3.05-1.59,4.25-2.8,1.2-1.22,2.13-2.63,2.8-4.25.67-1.61,1.01-3.4,1.01-5.36s-.34-3.75-1.01-5.37c-.67-1.61-1.61-3.03-2.8-4.25-1.2-1.22-2.61-2.15-4.25-2.8-1.63-.65-3.41-.98-5.34-.98s-3.7.33-5.31.98c-1.62.65-3.03,1.59-4.25,2.8-1.22,1.22-2.16,2.63-2.83,4.25-.67,1.62-1.01,3.4-1.01,5.37s.34,3.7,1.01,5.34c.67,1.63,1.61,3.06,2.8,4.28,1.2,1.22,2.62,2.15,4.25,2.8s3.41.98,5.34.98Z"/>
          <path class="cls-2" d="M414.37,250.95v-38.13h15.69c3.38,0,6.27.54,8.69,1.63,2.41,1.09,4.28,2.65,5.58,4.68,1.31,2.03,1.96,4.45,1.96,7.24s-.65,5.2-1.96,7.22c-1.31,2.02-3.17,3.56-5.58,4.63-2.42,1.07-5.31,1.61-8.69,1.61h-11.77l3.16-3.21v14.33h-7.08ZM421.45,237.39l-3.16-3.38h11.44c3.12,0,5.47-.67,7.05-2.01,1.58-1.34,2.37-3.21,2.37-5.61s-.79-4.3-2.37-5.61c-1.58-1.31-3.93-1.96-7.05-1.96h-11.44l3.16-3.49v22.06ZM439.32,250.95l-9.64-13.84h7.57l9.7,13.84h-7.63Z"/>
          <path class="cls-2" d="M454.19,250.95v-38.13h7.08v32.14h19.94v5.99h-27.02Z"/>
          <path class="cls-2" d="M486.82,250.95v-38.13h16.67c4.14,0,7.77.8,10.9,2.4,3.12,1.6,5.56,3.81,7.3,6.65,1.74,2.83,2.61,6.17,2.61,10.02s-.87,7.14-2.61,9.99c-1.74,2.85-4.18,5.08-7.3,6.67-3.12,1.6-6.76,2.4-10.9,2.4h-16.67ZM493.9,244.96h9.26c2.87,0,5.35-.54,7.43-1.63,2.09-1.09,3.7-2.61,4.85-4.58,1.14-1.96,1.72-4.25,1.72-6.86s-.57-4.95-1.72-6.89c-1.14-1.94-2.76-3.46-4.85-4.55-2.09-1.09-4.57-1.63-7.43-1.63h-9.26v26.15Z"/>
        </g>
      </g>
    </g>
  </g>
</svg>