<?xml version="1.0" encoding="UTF-8"?>
<svg id="Capa_1" data-name="Capa 1" xmlns="http://www.w3.org/2000/svg" viewBox="0 0 246.35 27.18">
  <defs>
    <style>
      .cls-1 {
        fill: #fff;
      }

      .cls-2 {
        fill: #3468c0;
      }
    </style>
  </defs>
  <path class="cls-2" d="M9.66,22.81c-1.4,0-2.74-.2-4.02-.6s-2.3-.92-3.05-1.55l1.15-2.59c.72.56,1.6,1.03,2.66,1.41s2.14.56,3.25.56c.94,0,1.7-.1,2.28-.31s1.01-.48,1.28-.83c.27-.35.41-.75.41-1.19,0-.55-.2-.99-.59-1.32-.39-.33-.9-.6-1.52-.79-.62-.2-1.31-.38-2.07-.55-.76-.17-1.52-.37-2.28-.6-.76-.23-1.45-.53-2.07-.9-.62-.37-1.13-.86-1.52-1.47-.39-.61-.59-1.4-.59-2.36s.26-1.86.78-2.68c.52-.81,1.31-1.46,2.38-1.95,1.07-.49,2.42-.73,4.06-.73,1.08,0,2.14.14,3.2.41,1.06.27,1.98.67,2.77,1.18l-1.05,2.59c-.8-.48-1.63-.83-2.48-1.06-.85-.23-1.67-.35-2.46-.35-.92,0-1.67.11-2.24.33-.57.22-.99.51-1.25.87-.26.36-.4.77-.4,1.23,0,.55.19.99.58,1.32.38.33.89.59,1.51.78.62.19,1.32.37,2.09.55.77.18,1.53.38,2.29.6.76.22,1.45.51,2.07.87.62.36,1.13.85,1.51,1.46.38.61.58,1.39.58,2.33s-.26,1.84-.78,2.65c-.52.81-1.32,1.46-2.39,1.95-1.08.49-2.43.73-4.07.73Z"/>
  <path class="cls-2" d="M28.61,22.81c-1.4,0-2.69-.23-3.87-.69s-2.2-1.11-3.07-1.93-1.55-1.8-2.02-2.92c-.48-1.12-.72-2.34-.72-3.67s.24-2.56.72-3.68c.48-1.12,1.15-2.09,2.02-2.92s1.89-1.47,3.07-1.93c1.18-.46,2.46-.69,3.84-.69s2.68.23,3.85.69c1.17.46,2.19,1.11,3.06,1.93.87.83,1.54,1.8,2.02,2.92.48,1.12.72,2.34.72,3.68s-.24,2.56-.72,3.69c-.48,1.13-1.15,2.1-2.02,2.92-.87.82-1.89,1.46-3.06,1.92-1.17.46-2.45.69-3.83.69ZM28.59,19.89c.9,0,1.74-.15,2.51-.46s1.43-.75,2-1.32c.56-.57,1-1.24,1.32-2,.32-.76.47-1.6.47-2.52s-.16-1.76-.47-2.52c-.32-.76-.76-1.43-1.32-2-.56-.57-1.23-1.01-2-1.32-.77-.31-1.61-.46-2.51-.46s-1.74.15-2.5.46c-.76.31-1.43.75-2,1.32-.57.57-1.02,1.24-1.33,2-.32.76-.47,1.6-.47,2.52s.16,1.74.47,2.51.76,1.44,1.32,2.01c.56.57,1.23,1.01,2,1.32s1.6.46,2.51.46Z"/>
  <path class="cls-2" d="M41.77,22.55V4.63h2.74l7.84,13.08h-1.43l7.71-13.08h2.74l.03,17.92h-3.15l-.03-12.98h.67l-6.56,10.93h-1.48l-6.66-10.93h.77v12.98h-3.18Z"/>
  <path class="cls-2" d="M66.23,22.55V4.63h2.74l7.84,13.08h-1.43l7.71-13.08h2.74l.03,17.92h-3.15l-.03-12.98h.67l-6.56,10.93h-1.48l-6.66-10.93h.77v12.98h-3.18Z"/>
  <path class="cls-2" d="M90.68,22.55V4.63h3.33v17.92h-3.33Z"/>
  <path class="cls-2" d="M102.18,19.76h10.11v2.79h-13.44V4.63h13.09v2.79h-9.76v12.34ZM101.92,12.08h8.91v2.74h-8.91v-2.74Z"/>
  <path class="cls-2" d="M116.01,22.55V4.63h7.37c1.59,0,2.95.26,4.08.77,1.13.51,2.01,1.25,2.62,2.2s.92,2.09.92,3.41-.31,2.45-.92,3.39c-.61.95-1.49,1.67-2.62,2.18-1.14.5-2.5.76-4.08.76h-5.53l1.48-1.51v6.73h-3.33ZM119.34,16.17l-1.48-1.59h5.38c1.47,0,2.57-.31,3.32-.95s1.11-1.51,1.11-2.64-.37-2.02-1.11-2.64c-.74-.61-1.85-.92-3.32-.92h-5.38l1.48-1.64v10.37ZM127.73,22.55l-4.53-6.5h3.56l4.56,6.5h-3.58Z"/>
  <path class="cls-1" d="M146.02,22.55l-5.94-17.92h3.46l5.3,16.21h-1.72l5.51-16.21h3.07l5.35,16.21h-1.66l5.43-16.21h3.18l-5.94,17.92h-3.53l-4.89-14.62h.92l-4.97,14.62h-3.56Z"/>
  <path class="cls-1" d="M178.92,22.81c-1.4,0-2.69-.23-3.87-.69s-2.2-1.11-3.07-1.93c-.87-.83-1.55-1.8-2.02-2.92-.48-1.12-.72-2.34-.72-3.67s.24-2.56.72-3.68c.48-1.12,1.15-2.09,2.02-2.92s1.89-1.47,3.07-1.93c1.18-.46,2.46-.69,3.84-.69s2.68.23,3.85.69c1.17.46,2.19,1.11,3.06,1.93.87.83,1.54,1.8,2.02,2.92.48,1.12.72,2.34.72,3.68s-.24,2.56-.72,3.69c-.48,1.13-1.15,2.1-2.02,2.92-.87.82-1.89,1.46-3.06,1.92-1.17.46-2.45.69-3.83.69ZM178.9,19.89c.9,0,1.74-.15,2.51-.46s1.43-.75,2-1.32c.56-.57,1-1.24,1.32-2,.32-.76.47-1.6.47-2.52s-.16-1.76-.47-2.52c-.32-.76-.76-1.43-1.32-2-.56-.57-1.23-1.01-2-1.32-.77-.31-1.61-.46-2.51-.46s-1.74.15-2.5.46c-.76.31-1.43.75-2,1.32-.57.57-1.02,1.24-1.33,2-.32.76-.47,1.6-.47,2.52s.16,1.74.47,2.51.76,1.44,1.32,2.01c.56.57,1.23,1.01,2,1.32s1.6.46,2.51.46Z"/>
  <path class="cls-1" d="M192.08,22.55V4.63h7.37c1.59,0,2.95.26,4.08.77,1.13.51,2.01,1.25,2.62,2.2s.92,2.09.92,3.41-.31,2.45-.92,3.39c-.61.95-1.49,1.67-2.62,2.18-1.14.5-2.5.76-4.08.76h-5.53l1.48-1.51v6.73h-3.33ZM195.41,16.17l-1.48-1.59h5.38c1.47,0,2.57-.31,3.32-.95s1.11-1.51,1.11-2.64-.37-2.02-1.11-2.64c-.74-.61-1.85-.92-3.32-.92h-5.38l1.48-1.64v10.37ZM203.81,22.55l-4.53-6.5h3.56l4.56,6.5h-3.58Z"/>
  <path class="cls-1" d="M210.8,22.55V4.63h3.33v15.11h9.37v2.82h-12.7Z"/>
  <path class="cls-1" d="M226.14,22.55V4.63h7.84c1.95,0,3.65.38,5.12,1.13,1.47.75,2.61,1.79,3.43,3.12.82,1.33,1.23,2.9,1.23,4.71s-.41,3.36-1.23,4.7c-.82,1.34-1.96,2.39-3.43,3.14-1.47.75-3.18,1.13-5.12,1.13h-7.84ZM229.47,19.73h4.35c1.35,0,2.51-.26,3.5-.77.98-.51,1.74-1.23,2.28-2.15.54-.92.81-2,.81-3.23s-.27-2.33-.81-3.24c-.54-.91-1.3-1.63-2.28-2.14-.98-.51-2.15-.77-3.5-.77h-4.35v12.29Z"/>
</svg>