<?xml version="1.0" encoding="UTF-8"?>
<svg id="Capa_1" data-name="Capa 1" xmlns="http://www.w3.org/2000/svg" viewBox="0 0 336.57 131.43">
  <defs>
    <style>
      .cls-1 {
        fill: #3a3a3a;
      }
    </style>
  </defs>
  <path class="cls-1" d="M4.94,83.01c.5.09.27-.25.32-.54,1.8-10.04,10.1-16.22,20.29-15.41,4.63.37,8.9,3.2,12.01,6.47.27-.68.82-1.17,1.34-1.66,11.54-10.83,30.38-2.61,30.81,12.95v22.99h-8.85c-.08-5.39.1-10.8,0-16.2-.11-5.96.53-13.57-6.4-16.03s-12.67,3.14-12.73,9.87v22.36s-8.84,0-8.84,0v-23.77c0-4.54-4.93-9.06-9.41-9.09s-9.55,4.33-9.55,8.93v23.7l-.54.24H4.94v-24.81Z"/>
  <path class="cls-1" d="M301.92,130.4v-8.85c9.47,0,17.48-7.76,17.69-17.22-.14-.14-3.08,1.57-3.53,1.76-18.08,7.73-35.68-12.2-25.72-29.2,9.53-16.27,33.96-12,37.76,6.53.06.29-.14.62.34.52v23.54c-.5-.09-.27.25-.32.54-2.1,11.52-10.66,20.29-22.35,22.05-.29.04-.64-.2-.55.31h-3.32ZM307.26,75.63c-9.11.7-13.99,10.99-8.63,18.49,4.99,6.98,15.82,6.08,19.75-1.52,4.09-7.93-2.22-17.64-11.12-16.96Z"/>
  <path class="cls-1" d="M286.12,1.03c-.08.38.19.33.42.45,5.86,3.12,1.86,10.93-3.68,8.9-2.78-1.02-3.85-4.38-2.45-6.93.59-1.08,1.28-1.42,2.3-1.97.22-.12.5-.06.42-.45h3Z"/>
  <path class="cls-1" d="M109.52,107.81v-4.9c-.28-.07-.32.11-.47.24-.8.61-1.58,1.61-2.45,2.29-11.21,8.75-28.24.61-31.4-12.5-4.43-18.33,15.82-32.14,31.85-23.16,14.52,8.13,10.19,23.59,10.86,37.49l-.24.54h-8.14ZM95.74,75c-12.73.89-16.87,17.58-6.02,24.09,11.56,6.93,24.32-6.09,17.77-17.61-2.32-4.07-7-6.81-11.75-6.48Z"/>
  <path class="cls-1" d="M194.19,54.42v29.07h7.82c2.92,0,7.19-4.25,7.19-7.19v-8.14l8.85.16c-.09,3.9.39,7.71-.75,11.5-.89,2.96-2.83,5.96-5.26,7.86l.04.36c2.44,1.86,4.4,4.96,5.26,7.92,1.13,3.89.59,7.85.71,11.85h-8.85v-8.45c0-2.92-4.29-7.19-7.19-7.19h-7.82v15.4l-.24.24h-8.61v-53.39h8.85Z"/>
  <path class="cls-1" d="M159.91,68.16v9.08c0,1.44-1.26,4.75-1.97,6.08-.95,1.78-2.28,3.14-3.56,4.66,1.39,1.63,2.87,3.24,3.83,5.18.56,1.14,1.71,4.39,1.71,5.56v9.08h-8.61l-.24-.24v-8.06c0-.59-.75-2.3-1.08-2.87-3.17-5.59-11.42-5.58-14.59,0-.33.57-1.08,2.28-1.08,2.87v8.29h-8.85v-9.08c0-.88.83-3.43,1.19-4.34.98-2.48,2.59-4.44,4.35-6.4-1.28-1.48-2.61-2.88-3.56-4.66-.7-1.31-1.97-4.67-1.97-6.08v-9.08h8.61l.24.24v8.06c0,.6.75,2.29,1.08,2.87,3.14,5.62,11.45,5.61,14.59,0,.33-.58,1.08-2.27,1.08-2.87v-8.06l.24-.24h8.61Z"/>
  <path class="cls-1" d="M272.06,107.81c.02-.51-.14-.98-.17-1.49-.38-6.89.61-14.56,0-21.33-.82-9.14-11.91-13.53-18.33-6.64-1.31,1.4-3,4.72-3,6.64v22.83h-8.85v-22.51c1.03-15.25,18.33-23.63,30.92-14.65,12.17,8.68,7.22,23.82,8.27,36.61l-.24.54h-8.61Z"/>
  <path class="cls-1" d="M300.97,19.98h8.85v6.24c0,3.94-3.81,8.96-7.06,10.95-5.89,3.59-13.02,2.56-18.13-1.86-1.18.69-2.14,1.63-3.4,2.29-8.45,4.47-18.96-.05-21.37-9.28-.08-.32-.43-1.59-.43-1.78v-6.56h8.85v5.29c0,3.01,3.74,5.37,6.55,5.13,2.25-.19,5.29-2.6,5.29-4.97v-10.11l.24-.24h8.53l.24.24v10.43c0,1.54,2.34,3.79,3.75,4.31,3.48,1.28,8.1-1.28,8.1-5.1v-4.98Z"/>
  <polygon class="cls-1" points="310.14 45.57 310.14 54.58 259.19 54.58 258.95 54.34 258.95 45.81 259.19 45.57 310.14 45.57"/>
  <polygon class="cls-1" points="234.31 68.16 234.31 107.81 225.62 107.81 225.62 68.4 225.86 68.16 234.31 68.16"/>
  <polygon class="cls-1" points="168.12 107.81 168.12 68.16 176.57 68.16 176.81 68.4 176.81 107.57 176.57 107.81 168.12 107.81"/>
  <path class="cls-1" d="M171.24,54.46c7.35-1.16,8.03,8.9,1.97,9.71-6.78.91-7.55-8.84-1.97-9.71Z"/>
  <path class="cls-1" d="M228.9,54.46c8.04-1.25,7.79,10.73.32,9.72-5.49-.74-5.35-8.93-.32-9.72Z"/>
  <path class="cls-1" d="M263.66,5.8c6.58-.25,6.65,10.32-.52,9.6-5.56-.56-5.44-9.37.52-9.6Z"/>
  <path class="cls-1" d="M305.21,5.8c6.58-.25,6.65,10.32-.52,9.6-5.55-.56-5.44-9.37.52-9.6Z"/>
</svg>