<?xml version="1.0" encoding="UTF-8"?>
<svg id="Capa_1" data-name="Capa 1" xmlns="http://www.w3.org/2000/svg" viewBox="0 0 429.89 137.94">
  <defs>
    <style>
      .cls-1 {
        fill: #3a3a3a;
      }
    </style>
  </defs>
  <path class="cls-1" d="M4.03,131.11V43.37h31.45v12.42h.83c2.43-3.97,5.52-7.31,9.27-10.01,3.75-2.7,8.83-4.06,15.23-4.06,9.82,0,17.02,3.14,21.6,9.44,4.58,6.29,6.87,13.8,6.87,22.51v57.44h-31.45v-51.15c0-3.53-.91-6.57-2.73-9.1-1.82-2.54-4.61-3.81-8.36-3.81-3.97,0-6.84,1.27-8.61,3.81-1.77,2.54-2.65,5.57-2.65,9.1v51.15H4.03Z"/>
  <path class="cls-1" d="M150.18,45.03c4.19,2.21,7.39,4.86,9.6,7.95h1.32v-9.6h31.45v87.73h-31.45v-9.6h-1.32c-2.21,3.09-5.41,5.74-9.6,7.95-4.19,2.21-9.1,3.31-14.73,3.31-8.06,0-14.96-2.15-20.69-6.46-5.74-4.3-10.02-9.93-12.83-16.88-2.81-6.95-4.22-14.34-4.22-22.18s1.41-15.23,4.22-22.18c2.81-6.95,7.09-12.58,12.83-16.88,5.74-4.3,12.63-6.46,20.69-6.46,5.63,0,10.54,1.1,14.73,3.31M133.79,72.84c-2.87,4.08-4.3,8.88-4.3,14.4s1.43,10.32,4.3,14.4c2.87,4.08,6.9,6.12,12.08,6.12s9.21-2.07,12.08-6.21c2.87-4.14,4.3-8.91,4.3-14.32s-1.44-10.18-4.3-14.32c-2.87-4.14-6.9-6.21-12.08-6.21s-9.22,2.04-12.08,6.12"/>
  <path class="cls-1" d="M322.07,45.52c3.81,2.54,6.59,5.77,8.36,9.68,1.76,3.92,2.65,7.97,2.65,12.17v63.73h-31.45v-53.63c0-2.98-.8-5.46-2.4-7.45-1.6-1.99-4-2.98-7.2-2.98s-5.41.97-6.95,2.9c-1.55,1.93-2.32,4.44-2.32,7.53v53.63h-31.45v-53.63c0-2.98-.8-5.46-2.4-7.45-1.6-1.99-4-2.98-7.2-2.98s-5.41.97-6.95,2.9c-1.55,1.93-2.32,4.44-2.32,7.53v53.63h-31.45V43.37h31.45v11.42h.99c2.32-3.97,5.43-7.14,9.35-9.52,3.92-2.37,8.69-3.56,14.32-3.56,6.18,0,11.23,1.41,15.15,4.22,3.92,2.81,6.76,6.48,8.52,11.01h.5c2.43-4.08,5.85-7.64,10.26-10.68,4.41-3.03,9.93-4.55,16.55-4.55,5.52,0,10.18,1.27,13.99,3.81"/>
  <path class="cls-1" d="M347.96,124.4c-4.3-5.57-6.46-12.55-6.46-20.94v-60.09h31.12v52.31c0,3.53.85,6.37,2.57,8.52,1.71,2.15,4.33,3.23,7.86,3.23s6.12-1.1,7.78-3.31c1.66-2.21,2.48-5.02,2.48-8.44v-52.31h31.45v87.73h-31.45v-12.42h-.99c-5.19,9.38-13.3,14.07-24.33,14.07-9.05,0-15.73-2.79-20.03-8.36"/>
  <path class="cls-1" d="M364.88,33.71c6.77-3.58,9.74-12.93,6.28-19.76-3.46-6.83-12.74-9.98-19.64-6.65-6.9,3.33-10.21,12.56-7.01,19.51,3.2,6.96,12.36,10.44,19.38,7.38"/>
  <path class="cls-1" d="M417.04,33.71c6.77-3.58,9.74-12.93,6.28-19.76-3.46-6.83-12.74-9.98-19.64-6.65-6.9,3.33-10.21,12.56-7.01,19.51,3.2,6.96,12.36,10.44,19.38,7.38"/>
</svg>