<?xml version="1.0" encoding="UTF-8"?>
<svg id="Capa_1" data-name="Capa 1" xmlns="http://www.w3.org/2000/svg" viewBox="0 0 475.6 87.06">
  <defs>
    <style>
      .cls-1 {
        fill: #3a3a3a;
      }
    </style>
  </defs>
  <polygon class="cls-1" points="295.79 22.78 297.48 46.88 308.08 22.78 323.74 22.78 324.71 46.39 336.03 22.78 353.14 22.78 330.25 66.63 313.14 66.63 311.94 41.57 301.02 66.55 283.74 66.64 279.41 22.78 295.79 22.78"/>
  <path class="cls-1" d="M47.86,24.71c-1-.77-.61-2.12-1.09-3.25-2.02-4.79-14.15-4.46-14.13,1.57.01,4.17,9.14,5,11.98,5.88,12.03,3.71,21.13,11.18,15.61,25.04-8.01,20.11-53.58,19.02-51.16-7.55h17.83c-.18,6.48,4.26,8.84,10.24,8.07,5.73-.75,10.03-6.24,4.07-9.61-8.67-4.91-24.66-3.81-25.89-17.96C12.99.23,57.98-1.84,63.68,17.57c.54,1.85,1.44,5.75.09,7.14h-15.9Z"/>
  <path class="cls-1" d="M238.93,67.12c-.2,4.62,4.61,5.26,8.17,4.07,3.36-1.12,4.55-7.68,4.84-10.82-1.95.9-3.08,2-5.3,2.65-23.25,6.77-28.01-23.52-14.21-36.38,6.97-6.5,21.05-7.5,26.5,1.44l.72-5.3h16.38l-8.44,41.44c-2.42,9.08-6.65,15.11-16.43,16.82-10.56,1.85-29.5.8-28.62-13.92h16.38ZM247.96,33.98c-5.98,1.23-9.36,14.59-3.88,18.12,10.89,7.01,19.4-21.31,3.88-18.12Z"/>
  <path class="cls-1" d="M86.17,22.78l-.96,4.33c1.33-1.09,2.49-2.55,4-3.46,8.61-5.23,19.92-.89,22.64,8.87,3.09,11.11-1.28,28.98-12.98,33.55-5.47,2.14-13.24,2.23-17.97-1.64-1.08-.89-1.39-2.67-2.92-2.62l-3.38,18.79h-16.87l12.05-57.83h16.38ZM88.45,33.98c-4.82.89-6.95,8.41-7.12,12.64-.46,11.75,11.09,11.27,13.86,1.81,1.73-5.89,2.16-16.09-6.74-14.44Z"/>
  <path class="cls-1" d="M200.86,66.63l5.32-26.25c1-5.27-4.99-6.6-8.67-4.33-4.29,2.63-5.91,17.61-7.1,22.78-.58,2.55-1.14,5.59-2.32,7.8h-16.14l9.4-43.85h15.66l-.73,4.81c5.78-5.7,12.92-7.75,20.65-4.74,9.51,3.71,6.84,13.2,5.38,21.14-1.32,7.16-3.5,14.22-4.58,21.44l-.72,1.21h-16.14Z"/>
  <path class="cls-1" d="M352.17,35.79c.79-7.02,6.29-11.75,12.91-13.35,7.73-1.87,27.92-1.97,30.25,8.02,1.8,7.72-4.39,22.78-5.03,31.17-.14,1.86.07,3.22.42,5h-16.38l-.72-4.33c-9.67,9.9-32.18,5.99-26.89-11.47,2.04-6.73,8.2-8.89,14.58-10,4.77-.83,10.25-.25,14.62-1.28.87-.21,1.99-1.1,2.53-1.8,4.32-5.61-5.89-9.06-9.92-3.64-.51.68-.37,1.69-.46,1.69h-15.9ZM376.75,47.36c-3.07,1.5-6.23,1.05-9.28,1.56-5.51.92-6.57,7.91-1.09,8.57,7.08.86,9.92-3.73,10.37-10.13Z"/>
  <polygon class="cls-1" points="448.07 6.4 435.54 66.63 418.68 66.63 431.2 6.4 448.07 6.4"/>
  <polygon class="cls-1" points="424.94 6.4 412.41 66.63 396.03 66.63 408.07 6.4 424.94 6.4"/>
  <path class="cls-1" d="M136.77,22.78l-.48,5.3c4.93-5.12,10.58-7.88,17.83-6.27l-2.87,14.74c-.82.6-4.92-.82-6.53-.8-2.07.03-6.11,1.11-7.72,2.44-5.64,4.65-6.21,21.49-8.43,28.44h-16.87l9.4-43.85h15.66Z"/>
  <polygon class="cls-1" points="174.84 22.78 165.44 66.63 149.3 66.63 158.7 22.78 174.84 22.78"/>
  <path class="cls-1" d="M178.21,6.4c-.7,3.8-.89,8.18-2.65,11.57h-16.14l1.93-11.57h16.87Z"/>
  <path class="cls-1" d="M456.13,6.99c10.97-2.25,9.87,13.59.72,11.62-6.43-1.39-6.29-10.48-.72-11.62ZM457.11,7.93c-5.02.87-4.97,9.02.42,9.52,7,.66,6.61-10.74-.42-9.52Z"/>
  <path class="cls-1" d="M460.54,10.31c.56,2.1-1.59,3.12-.42,5.24-1.84.52-1.75-1.46-2.65-2.41l-.24,2.42h-1.44s0-5.79,0-5.79l4.76.54Z"/>
</svg>